<?xml version="1.0" encoding="UTF-8" standalone="no"?>
<svg width="1440px" height="810px" viewBox="0 0 1440 810" version="1.1" xmlns="http://www.w3.org/2000/svg" xmlns:xlink="http://www.w3.org/1999/xlink" xmlns:sketch="http://www.bohemiancoding.com/sketch/ns">
    <!-- Generator: Sketch 3.3.2 (12043) - http://www.bohemiancoding.com/sketch -->
    <title>Desktop.404 Copy</title>
    <desc>Created with Sketch.</desc>
    <defs>
        <path id="path-1" d="M32.8371833,30.026442 C42.7221882,23.0504138 38.1225071,1.35284184 20.4616638,0.698951923 C2.80082049,0.0450620021 1.30824549,10.5265732 0.672638633,14.6890903 C-0.00239147645,19.1097857 0.404078271,24.84368 4.13875056,28.0543652 C7.90223344,31.2898189 9.61456971,32.038115 14.2675727,32.3932287 C18.57967,32.7223247 28.8472364,32.8422202 32.8371833,30.026442 Z"></path>
        <path id="path-3" d="M19.6700581,21.2419461 C25.5913522,16.3068154 22.8360613,0.957056236 12.2569014,0.494467479 C1.6777414,0.0318787228 0.783662369,7.44693298 0.402922531,10.3916696 C-0.00143253702,13.5190522 0.242050087,17.5754461 2.47918536,19.8468175 C4.73357869,22.1357111 5.75929863,22.6650867 8.54653035,22.9163088 C11.1295535,23.149125 17.2800088,23.233944 19.6700581,21.2419461 Z"></path>
        <path id="path-5" d="M19.6700581,21.2419461 C25.5913522,16.3068154 22.8360613,0.957056236 12.2569014,0.494467479 C1.6777414,0.0318787228 31.1398698,8.79917262 8.54653035,22.9163088 C11.1295535,23.149125 17.2800088,23.233944 19.6700581,21.2419461 Z"></path>
    </defs>
    <g id="404" stroke="none" stroke-width="1" fill="none" fill-rule="evenodd" sketch:type="MSPage">
        <g id="Desktop.404-Copy" sketch:type="MSArtboardGroup">
            <g id="Group" sketch:type="MSLayerGroup" transform="translate(-99.000000, -416.000000)">
                <rect id="Rectangle-29" fill="#202020" sketch:type="MSShapeGroup" x="99" y="416" width="1440" height="810"></rect>
                <g sketch:type="MSShapeGroup">
                    <ellipse id="Oval-34-Copy-6" fill-opacity="0.02" fill="#D8D8D8" cx="804" cy="804" rx="803.114158" ry="803.114158"></ellipse>
                    <path d="M804,1492.38356 C1184.18374,1492.38356 1539.00003,1291 1524.00003,806.999995 C1509.00003,322.999995 1265,11.2328723 804,115.616436 C342.999996,219.999999 44.6164394,246 99.0000001,807.000011 C153.383561,1368.00002 423.816255,1492.38356 804,1492.38356 Z" id="Oval-34-Copy-5" fill="#262626"></path>
                    <path d="M804.00001,1342.99998 C1251.00003,1342.99998 1381.65297,1193.99998 1395.99998,803.999984 C1410.347,413.999983 1120.81979,230.34703 804,230.34703 C487.180213,230.34703 200.65297,587.999998 216,785.999984 C231.34703,983.999969 356.999995,1342.99998 804.00001,1342.99998 Z" id="Oval-34-Copy-4" fill="#292929"></path>
                    <path d="M804,1262.92238 C1057.45583,1262.92238 1239.84477,1061 1262.92238,804 C1285.99999,547.000002 1057.45583,345.077624 804,345.077624 C550.54417,345.077624 338.155248,489.000013 345.077624,804 C352,1118.99999 550.54417,1262.92238 804,1262.92238 Z" id="Oval-34-Copy-3" fill="#2C2C2C"></path>
                    <path d="M804,1148.19178 C1052.99999,1114.00001 1161.38357,990.999994 1148.19178,804 C1134.99999,617.000006 1021.99999,473 818.99999,465 C615.99999,457 459.808218,646.00001 459.808218,804 C459.808218,961.99999 555.00001,1182.38356 804,1148.19178 Z" id="Oval-34-Copy-2" fill="#2F2F2F"></path>
                    <path d="M804,1033.46119 C945.999999,1023.92238 1054.92238,964.999999 1033.46119,804 C1011.99999,643.000001 930.727921,583 804.000006,583 C677.272092,583 597.999999,671.000001 574.538812,804 C551.077625,936.999999 662.000001,1042.99999 804,1033.46119 Z" id="Oval-34-Copy" fill="#323232"></path>
                </g>
                <g id="Dashed-lines" transform="translate(400.000000, 428.000000)" stroke-width="2" sketch:type="MSShapeGroup" stroke-dasharray="2,5">
                    <path d="M2,362.761704 C1.99999776,269.775281 806,311.45885 806,412.995748 C806,514.532645 2.00000224,455.748127 2,362.761704 Z" id="Path-603" stroke="#3F3F3F"></path>
                    <path d="M-35.3647165,366.557415 C-35.3647187,246.046192 768.635284,300.068465 768.635284,431.661178 C768.635284,563.253892 -35.3647142,487.068638 -35.3647165,366.557415 Z" id="Path-603-Copy" stroke="#3F3F3F" transform="translate(366.635284, 400.058599) rotate(-42.000000) translate(-366.635284, -400.058599) "></path>
                    <path d="M-36.0640671,358.835669 C-36.0640696,238.324446 848.184854,292.346719 848.184854,423.939432 C848.184854,555.532146 -36.0640647,479.346892 -36.0640671,358.835669 Z" id="Path-603-Copy-2" stroke="#3C3C3C" transform="translate(406.060393, 392.336853) rotate(-133.000000) translate(-406.060393, -392.336853) "></path>
                </g>
                <g id="Planets" transform="translate(122.000000, 456.000000)" sketch:type="MSShapeGroup">
                    <path d="M784.94059,153 C785.897745,156.923817 788.729249,159.52652 793.537834,159 C796.572444,158.667723 799.726551,157.546148 800.999999,156 C802.203669,154.538573 801.6092,150.904432 801.6092,148.597244 C801.6092,145.402659 798,142 798,142 C798,142 795.350972,141.211479 793.537835,141 C789.562387,141 784.502725,142.935242 784.94059,148.597244 C785.021767,149.646929 784.722758,152.107005 784.94059,153 Z" id="Oval-34-Copy-8" fill="#7D5E36"></path>
                    <path d="M784.94059,153 C785.897745,156.923817 788.729249,159.52652 793.537834,159 C796.572444,158.667723 799.726551,157.546148 800.999999,156 C802.203669,154.538573 797,138 784.94059,148.597244 C784.743519,149.638443 784.722758,152.107005 784.94059,153 Z" id="Oval-34-Copy-24" fill="#AD7B3B"></path>
                    <path d="M969.667892,163.323667 C972.933276,162.96612 974.132805,161.194414 974.132805,158.567847 C974.132805,155.941281 972.733355,154.722754 969.667892,154.365208 C967.468755,154.365208 964.669854,155.435744 964.912073,158.567848 C965.154291,161.699951 966.402507,163.681213 969.667892,163.323667 Z" id="Oval-34-Copy-11" fill="#3A6176"></path>
                    <path d="M969.667892,163.323667 C972.933276,162.96612 973.065463,156.357546 970,156 C967.800864,156 964.669854,155.435744 964.912073,158.567848 C965.154291,161.699951 966.402507,163.681213 969.667892,163.323667 Z" id="Oval-34-Copy-25" fill="#4381A3"></path>
                    <path d="M431.605525,611.418063 C433.811808,611.176484 434.62228,609.979416 434.62228,608.204755 C434.62228,606.430095 433.676729,605.606787 431.605525,605.365208 C430.11966,605.365208 428.22856,606.088524 428.392217,608.204755 C428.555874,610.320986 429.399241,611.659642 431.605525,611.418063 Z" id="Oval-34-Copy-15" fill-opacity="0.400000006" fill="#51B2E5"></path>
                    <path d="M431.605525,611.418063 C433.811808,611.176484 434.62228,609.979416 434.62228,608.204755 C434.62228,606.430095 433.676729,605.606787 431.605525,605.365208 C430.11966,605.365208 429.399241,611.659642 431.605525,611.418063 Z" id="Oval-34-Copy-27" fill-opacity="0.400000006" fill="#51B2E5"></path>
                    <path d="M1.59536422,552.419134 C3.07263176,553.905502 6.84744873,554.69363 9.35434926,554.419134 C11.6710172,554.165469 13.9960668,553.709872 15.5953647,552.419134 C17.5941341,550.805997 18.5953647,548.138617 18.5953647,545.809715 C18.5953647,543.705897 18.3046701,540.174467 16.5953647,538.419134 C14.8984779,536.676554 11.7918746,536.70344 9.354349,536.419134 C7.6520819,536.419134 4.36807793,536.785093 2.59536419,538.419134 C0.712698608,540.154526 0.396243209,543.234899 0.595364317,545.809715 C0.796021516,548.404395 0.00130691367,550.815257 1.59536422,552.419134 Z" id="Oval-34-Copy-14" fill="#3A3227"></path>
                    <path d="M393.897391,24.528086 C397.294925,24.1560699 398.543,22.3126625 398.543,19.5797993 C398.543,16.8469362 397.086913,15.5790955 393.897391,15.2070795 C391.609256,15.2070795 388.697084,16.3209401 388.949105,19.5797995 C389.201126,22.8386588 390.499857,24.900102 393.897391,24.528086 Z" id="Oval-34-Copy-12" fill="#3F372C"></path>
                    <path d="M219.833136,661.970358 C222.163169,661.715229 223.0191,660.451017 223.0191,658.576816 C223.0191,656.702615 222.020514,655.438404 219.833136,655.183275 C218.26393,655.183275 216.266758,656.341887 216.439595,658.576816 C216.612431,660.811746 217.503103,662.225487 219.833136,661.970358 Z" id="Oval-34-Copy-9" opacity="0.200000018" fill="#AB5787"></path>
                    <path d="M219.833136,661.970358 C222.163169,661.715229 223.0191,660.451017 223.0191,658.576816 C223.0191,656.702615 222.020514,655.438404 219.833136,655.183275 C218.26393,655.183275 217.503103,662.225487 219.833136,661.970358 Z" id="Oval-34-Copy-28" opacity="0.200000018" fill="#AB5787"></path>
                    <path d="M449.451606,398.401784 C452.840938,398.030666 454.085999,396.191709 454.085999,393.465444 C454.085999,390.739178 452.633428,388.900221 449.451606,388.529103 C447.168995,388.529103 444.263853,390.214452 444.515266,393.465444 C444.766679,396.716436 446.062275,398.772902 449.451606,398.401784 Z" id="Oval-34-Copy-10" fill="#874C6D"></path>
                    <path d="M449.451606,398.401784 C452.840938,398.030666 454.085999,396.191709 454.085999,393.465444 C454.085999,390.739178 452.633428,388.900221 449.451606,388.529103 C447.168995,388.529103 446.062275,398.772902 449.451606,398.401784 Z" id="Oval-34-Copy-26" fill="#A1547F"></path>
                    <path d="M180.61913,20.4118829 C187.545586,19.6534643 190.09,15.8953616 190.09,10.3239506 C190.09,4.75253963 187.121518,0.99443719 180.61913,0.236018856 C175.954373,0.236018856 170.01741,3.68020634 170.531198,10.3239509 C171.044986,16.9676954 173.692673,21.1703014 180.61913,20.4118829 Z" id="Oval-34-Copy-17" fill="#2D2D2D"></path>
                    <path d="M1303.4905,30.9516851 C1307.2883,30.5358417 1308.68341,28.475262 1308.68341,25.4204395 C1308.68341,22.365617 1307.05578,20.3050374 1303.4905,19.8891942 C1300.9328,19.8891942 1297.67755,21.7776532 1297.95926,25.4204396 C1298.24097,29.063226 1299.6927,31.3675284 1303.4905,30.9516851 Z" id="Oval-34-Copy-18" opacity="0.700000048" fill-opacity="0.300000012" fill="#111111"></path>
                </g>
                <g id="Rocket-ship" transform="translate(496.742052, 668.653507) rotate(-46.000000) translate(-496.742052, -668.653507) translate(430.742052, 625.153507)" sketch:type="MSShapeGroup">
                    <path d="M65.2041236,3.55896591 C65.2041236,3.55896591 62.2041236,22.7314813 67.2041236,21.7314813 C72.2041236,20.7314813 70.2041236,22.7314813 70.2041236,22.7314813 C70.2041236,22.7314813 63.2041235,33.7314813 68.2041236,34.7314813 C73.2041237,35.7314813 71.2041236,33.7314813 71.2041236,33.7314813 C71.2041236,33.7314813 74.2041235,36.7314813 71.2041236,40.7314813 C68.2041237,44.7314813 71.2041236,40.7314813 71.2041236,49.7314813 C71.2041236,58.7314813 77.3638983,62.3991105 77.3638983,62.3991105 C77.3638983,62.3991105 67.2041236,56.7314813 65.2041236,55.7314813 C63.2041236,54.7314813 61.1067191,65.0592706 61.1067191,67.3694284 C61.1067191,69.6795862 61.0654097,58.7314813 54.0654097,58.7314813 C47.0654097,58.7314813 47.8707896,79.03388 47.8707896,79.03388 C47.8707896,79.03388 48.2041236,57.7314813 43.2041236,57.7314813 C38.2041236,57.7314813 27.7700444,84.881315 27.7700444,84.881315 C27.7700444,84.881315 41.2041236,47.7314813 34.2041236,49.7314813 C27.2041236,51.7314813 25.2041236,58.7314813 25.2041236,58.7314813 C25.2041236,58.7314813 34.2041236,44.1561601 32.2041236,44.1561601 C30.2041236,44.1561601 24.2041236,42.7314813 24.2041236,42.7314813 C24.2041236,42.7314813 35.2041236,28.7314813 32.2041236,27.7314813 C29.2041236,26.7314813 23.2041236,29.7314813 23.2041236,29.7314813 C23.2041236,29.7314813 44.2041236,14.7314813 39.2041236,15.7314813 C34.2041236,16.7314813 29.2041236,16.7314813 29.2041236,16.7314813 C29.2041236,16.7314813 53.2041236,8.7314813 49.2041236,7.7314813 C45.2041236,6.7314813 42.2041236,5.7314813 42.2041236,5.7314813 L59.2041236,1.7314813" id="Path-266" fill="#343434" transform="translate(50.284011, 43.306398) rotate(63.000000) translate(-50.284011, -43.306398) "></path>
                    <path d="M109.031151,27.0422857 C109.062736,27.240381 107.848245,27.5928889 107.649566,27.623873 L90.9268868,30.2250159 C90.7297358,30.2565079 90.5437925,30.120381 90.5132264,29.9227937 L88.7296981,18.527746 C88.6986226,18.3296508 88.8346415,18.1447619 89.0333208,18.1137778 L109.031151,27.0422857" id="Fill-1" fill="#493540"></path>
                    <path d="M110.339377,35.4090159 C110.309321,35.2109206 109.044396,35.2434286 108.846226,35.2739048 L92.1255849,37.8745397 C91.9258868,37.9060317 91.7898679,38.0909206 91.820434,38.2890159 L93.6034528,49.6835556 C93.6340189,49.8816508 93.8204717,50.0167619 94.0191509,49.9857778 L110.339377,35.4090159" id="Fill-2" fill="#613F52"></path>
                    <path d="M93.5688113,38.367746 L84.044434,42.2417778 L88.5977547,36.616381 L80.0713585,38.0060952 L87.2197358,34.3067937 L78.0137547,35.4471111 L87.0455094,33.2015238 L79.5705849,32.4528254 L87.2900377,30.0233651 L81.0428491,27.7569524 L91.9365849,27.9408254" id="Fill-3" fill="#7B5C34"></path>
                    <path d="M131.572075,27.5446349 C131.165547,24.9531429 118.420528,19.903746 104.021377,22.1427302 C89.6222264,24.3817143 89.895283,26.6496508 91.0211321,33.8511746 C92.1474906,41.0521905 92.5805094,43.2947302 106.981189,41.0552381 C121.378811,38.816254 132.063679,30.6846984 131.572075,27.5446349 Z" id="Fill-4" fill="#828282"></path>
                    <path d="M131.572075,27.5446349 C131.165547,24.9531429 118.420528,19.903746 104.021377,22.1427302 C89.6222264,24.3817143 89.895283,26.6496508 91.0211321,33.8511746 C93.8114218,26.7325577 94.2700635,28.5242057 108.670743,26.2847136 C123.068365,24.0457295 132.063679,30.6846984 131.572075,27.5446349 Z" id="Fill-4-Copy" fill="#6C6C6C"></path>
                    <path d="M124.421151,34.9127619 C123.447623,35.4938413 122.389019,36.0673016 121.254,36.6204444 L118.995679,22.183873 C120.248887,22.3860317 121.43434,22.6293333 122.542358,22.9026032 L124.421151,34.9127619" id="Fill-5" fill="#613F52"></path>
                    <path d="M113.617585,26.1549206 C113.398528,26.1549206 113.177434,26.1711746 112.954302,26.2062222 C110.623642,26.5688889 109.027585,28.7469206 109.39234,31.071746 C109.720415,33.1735873 111.540113,34.6760635 113.607906,34.6760635 C113.826962,34.6760635 114.048566,34.6593016 114.271189,34.624254 C116.603377,34.2615873 118.197906,32.0835556 117.835189,29.7587302 C117.505075,27.6568889 115.685887,26.1549206 113.617585,26.1549206" id="Fill-6" fill="#3F3F3F"></path>
                    <path id="Path-265" stroke="#979797" d=""></path>
                </g>
                <g id="saturn" transform="translate(223.000000, 688.000000) rotate(-26.000000) translate(-223.000000, -688.000000) translate(196.000000, 674.000000)" sketch:type="MSShapeGroup">
                    <path d="M36.4229255,25.6986968 C43.1130369,19.6897267 40.0000007,1.00000001 28.0472489,0.436756161 C16.0944971,-0.126487686 15.0843314,8.9020147 14.6541565,12.4874991 C14.1973002,16.2953717 14.4723965,21.2343998 17.0000001,24.0000009 C19.5471025,26.7869369 20.7060013,27.4314998 23.8551255,27.7373856 C26.7735269,28.0208604 33.7225536,28.1241352 36.4229255,25.6986968 Z" id="Oval-34-Copy-16" fill="#3E3038"></path>
                    <path d="M21.1468126,10.0326076 C27.13573,2.90445565 40.0000007,1.00000001 28.0472489,0.436756161 C16.0944971,-0.126487686 15.0843314,8.9020147 14.6541565,12.4874991 C14.1973002,16.2953717 14.4723965,21.2343998 17.0000001,24.0000009 C19.5471025,26.7869369 15.8422556,16.3462177 21.1468126,10.0326076 Z" id="Oval-34-Copy-23" fill="#31292D"></path>
                    <path d="M14,19 C-43,12 96.9999982,20 39.9999997,11" id="Path-189-Copy" stroke="#463A2A" stroke-width="2" stroke-linecap="round"></path>
                </g>
                <g id="planet" transform="translate(849.000000, 1016.000000)" sketch:type="MSShapeGroup">
                    <path d="M4.99999996,16.9999999 C6.4772675,18.4863679 10.2520845,19.2744953 12.758985,18.9999999 C15.0756529,18.7463343 17.4007025,18.2907376 19.0000004,16.9999999 C20.9987699,15.3868627 22.0000004,12.7194829 22.0000004,10.3905811 C22.0000004,8.28676242 21.7093058,4.75533273 20.0000004,2.99999993 C18.3031137,1.25742017 15.1965104,1.28430534 12.7589847,0.999999929 C11.0567176,0.999999929 7.77271367,1.36595882 5.99999993,2.99999993 C4.11733435,4.73539176 3.80087895,7.81576484 4.00000006,10.3905811 C4.20065726,12.9852603 3.40594265,15.3961227 4.99999996,16.9999999 Z" id="Oval-34-Copy-13" fill="#3A5564"></path>
                    <path d="M4.99999996,16.9999999 C6.4772675,18.4863679 10.2520845,19.2744953 12.758985,18.9999999 C15.0756529,18.7463343 13.0000005,21 19.0000004,16.9999999 C25.0000003,12.9999999 20.0000007,0.609419045 20.0000003,3.00000008 C16.9999996,15.0000005 8.99999961,20.9999995 4.00000006,10.3905811 C-0.999999498,-0.218837388 3.40594265,15.3961227 4.99999996,16.9999999 Z" id="Oval-34-Copy-20" fill="#2B3E48"></path>
                    <path d="M4,8.00000005 C4,8.00000005 0,8 0,11 C0,14 27,15 27,12 C27,8.99999999 22,8.99999999 22,8.99999999" id="Path-189" stroke="#AB5787" stroke-width="2"></path>
                    <path d="M4,8.00000005 C4,8.00000005 0,8 0,11 C0,14 27,15 27,12 C27,8.99999999 22,8.99999999 22,8.99999999" id="Path-189-Copy-2" stroke="#874C6D" stroke-width="2"></path>
                </g>
                <g id="planet-copy" transform="translate(1229.500000, 605.000000) rotate(-242.000000) translate(-1229.500000, -605.000000) translate(1216.000000, 595.000000)" sketch:type="MSShapeGroup">
                    <path d="M4.99999996,16.9999999 C6.4772675,18.4863679 10.2520845,19.2744953 12.758985,18.9999999 C15.0756529,18.7463343 17.4007025,18.2907376 19.0000004,16.9999999 C20.9987699,15.3868627 22.0000004,12.7194829 22.0000004,10.3905811 C22.0000004,8.28676242 21.7093058,4.75533273 20.0000004,2.99999993 C18.3031137,1.25742017 15.1965104,1.28430534 12.7589847,0.999999929 C11.0567176,0.999999929 7.77271367,1.36595882 5.99999993,2.99999993 C4.11733435,4.73539176 3.80087895,7.81576484 4.00000006,10.3905811 C4.20065726,12.9852603 3.40594265,15.3961227 4.99999996,16.9999999 Z" id="Oval-34-Copy-13" fill="#343434"></path>
                    <path d="M4.99999996,16.9999999 C6.4772675,18.4863679 10.2595107,19.4686067 12.758985,18.9999999 C7.55410263,13.7277747 5,10.6654557 12.7589847,0.999999929 C11.0567176,0.999999929 7.77271367,1.36595882 5.99999993,2.99999993 C4.11733435,4.73539176 3.80087895,7.81576484 4.00000006,10.3905811 C4.20065726,12.9852603 3.40594265,15.3961227 4.99999996,16.9999999 Z" id="Oval-34-Copy-22" fill="#2E2E2E"></path>
                    <path d="M4,8.00000005 C4,8.00000005 0,8 0,11 C0,14 27,15 27,12 C27,8.99999999 22,8.99999999 22,8.99999999" id="Path-189" stroke="#444444" stroke-width="2"></path>
                </g>
                <g id="planet-copy-2" transform="translate(709.168142, 456.134375) rotate(-242.000000) translate(-709.168142, -456.134375) translate(694.668142, 446.634375)" sketch:type="MSShapeGroup">
                    <path d="M6.40431713,16.0600716 C7.84034505,17.5516918 11.5097837,18.3426041 13.9467012,18.0671389 C16.1986967,17.8125769 18.4588399,17.3553702 20.0134916,16.0600716 C21.9564631,14.4412342 22.9297431,11.7644289 22.9297431,9.42729751 C22.9297431,7.31604475 22.6471636,3.77213631 20.9855754,2.01060081 C19.3360592,0.261863428 16.3161803,0.288843594 13.946701,0.00353355669 C12.2919546,0.00353355669 9.09962737,0.37078561 7.37640095,2.01060081 C5.54629214,3.75212487 5.23867095,6.84338285 5.43223337,9.42729751 C5.62728899,12.0311454 4.85475976,14.4505269 6.40431713,16.0600716 Z" id="Oval-34-Copy-13" fill="#292929"></path>
                    <path d="M4.88900998,6.85674191 C4.88900998,6.85674191 0.771948944,6.85674186 0.771948944,10.0444369 C0.771948944,13.232132 28.5621109,14.294697 28.5621109,11.1070019 C28.5621109,7.91930686 23.4157846,7.91930686 23.4157846,7.91930686" id="Path-189" stroke="#292929" stroke-width="2"></path>
                </g>
                <g id="planet-copy-3" transform="translate(1280.575121, 1081.121363) rotate(-304.000000) translate(-1280.575121, -1081.121363) translate(1266.075121, 1071.621363)" sketch:type="MSShapeGroup">
                    <path d="M6.40431713,16.0600716 C7.84034505,17.5516918 11.5097837,18.3426041 13.9467012,18.0671389 C16.1986967,17.8125769 18.4588399,17.3553702 20.0134916,16.0600716 C21.9564631,14.4412342 22.9297431,11.7644289 22.9297431,9.42729751 C22.9297431,7.31604475 22.6471636,3.77213631 20.9855754,2.01060081 C19.3360592,0.261863428 16.3161803,0.288843594 13.946701,0.00353355669 C12.2919546,0.00353355669 9.09962737,0.37078561 7.37640095,2.01060081 C5.54629214,3.75212487 5.23867095,6.84338285 5.43223337,9.42729751 C5.62728899,12.0311454 4.85475976,14.4505269 6.40431713,16.0600716 Z" id="Oval-34-Copy-13" fill="#252525"></path>
                    <path d="M4.88900998,6.85674191 C4.88900998,6.85674191 0.771948944,6.85674186 0.771948944,10.0444369 C0.771948944,13.232132 28.5621109,14.294697 28.5621109,11.1070019 C28.5621109,7.91930686 23.4157846,7.91930686 23.4157846,7.91930686" id="Path-189" stroke="#252525" stroke-width="2"></path>
                </g>
                <g id="saturn-copy-3" transform="translate(1402.511714, 787.530098) rotate(-164.000000) translate(-1402.511714, -787.530098) translate(1383.011714, 770.530098)">
                    <path d="M33.8371833,30.026442 C43.7221882,23.0504138 39.1225071,1.35284184 21.4616638,0.698951923 C3.80082049,0.0450620021 2.30824549,10.5265732 1.67263863,14.6890903 C0.997608524,19.1097857 1.40407827,24.84368 5.13875056,28.0543652 C8.90223344,31.2898189 10.6145697,32.038115 15.2675727,32.3932287 C19.57967,32.7223247 29.8472364,32.8422202 33.8371833,30.026442 Z" id="Oval-34-Copy-16" fill="#51412D" sketch:type="MSShapeGroup"></path>
                    <g id="Rectangle-16-+-Rectangle-16-Copy-+-Rectangle-16-Copy-2-Mask" transform="translate(1.000000, 0.000000)">
                        <mask id="mask-2" sketch:name="Mask" fill="white">
                            <use xlink:href="#path-1"></use>
                        </mask>
                        <use id="Mask" fill="#4F3F2B" sketch:type="MSShapeGroup" xlink:href="#path-1"></use>
                        <path d="M-2.3364413,4.02676517 L39.2038874,-0.160520936 L40.599568,5.78639506 L-3.99619724,5.78639506 L-2.3364413,4.02676517 Z" id="Rectangle-16" fill="#272727" sketch:type="MSShapeGroup" mask="url(#mask-2)"></path>
                        <path d="M-3.88617059,10.3521586 L42.2142839,13.1575204 L42.9773461,18.972299 L-5.06796178,18.972299 L-3.88617059,10.3521586 Z" id="Rectangle-16-Copy" fill="#272727" sketch:type="MSShapeGroup" mask="url(#mask-2)"></path>
                        <path d="M-1.3178178,21.3475064 L43.57583,21.3475064 L43.57583,25.2760778 L-1.3178178,27.1968882 L-1.3178178,21.3475064 Z" id="Rectangle-16-Copy-2" fill="#272727" sketch:type="MSShapeGroup" mask="url(#mask-2)"></path>
                    </g>
                    <path d="M29.7897622,16.918519 C33.1287362,16.918519 34.5606264,15.6118902 34.5606264,13.5725772 C34.5606264,11.5332643 33.9124218,9.11851882 28.499435,9.11851882 C23.0864482,9.11851882 23.7224899,11.4686125 24.3410678,12.8110216 C24.9596456,14.1534306 26.4507883,16.918519 29.7897622,16.918519 Z" id="Oval-17" stroke="#282828" stroke-width="2" fill="#4F3F2B" sketch:type="MSShapeGroup"></path>
                    <path d="M21.4858648,0.679747656 C3.80371218,0.0250687605 2.30933626,10.5192268 1.67296249,14.6867663 C0.997117894,19.1127957 1.40407808,24.8536084 5.14325657,28.0681676 C8.91128042,31.3075251 12.1861514,33.495122 19.466258,33.1656275 C23.7835582,33.4951206 -4.44481136,22.3369264 21.4858648,0.679747656 Z" id="Oval-34-Copy-21" fill-opacity="0.300000012" fill="#000000" sketch:type="MSShapeGroup"></path>
                </g>
                <g id="saturn-copy-2" transform="translate(766.310120, 1152.587416) rotate(-269.000000) translate(-766.310120, -1152.587416) translate(754.310120, 1140.087416)">
                    <path d="M19.6700581,21.2419461 C25.5913522,16.3068154 22.8360613,0.957056236 12.2569014,0.494467479 C1.6777414,0.0318787228 0.783662369,7.44693298 0.402922531,10.3916696 C-0.00143253702,13.5190522 0.242050087,17.5754461 2.47918536,19.8468175 C4.73357869,22.1357111 5.75929863,22.6650867 8.54653035,22.9163088 C11.1295535,23.149125 17.2800088,23.233944 19.6700581,21.2419461 Z" id="Oval-34-Copy-16" fill="#364953" sketch:type="MSShapeGroup"></path>
                    <g id="Rectangle-16-+-Rectangle-16-Copy-+-Rectangle-16-Copy-2-Mask" transform="translate(0.000000, 0.000000)">
                        <mask id="mask-4" sketch:name="Mask" fill="white">
                            <use xlink:href="#path-3"></use>
                        </mask>
                        <use id="Mask" fill="#364953" sketch:type="MSShapeGroup" xlink:href="#path-3"></use>
                        <path d="M6.29935617,17.408415 L19.8299434,13.8645451 L20.7785726,19.3192998 L6.29935617,19.3192998 L6.29935617,17.408415 Z" id="Rectangle-16" fill="#483740" sketch:type="MSShapeGroup" mask="url(#mask-4)">
                            <g transform="translate(13.538964, 16.591922) rotate(87.000000) translate(-13.538964, -16.591922) "></g>
                        </path>
                        <path d="M-2.56756766,7.3235449 L15.6976708,9.30817377 L16,13.4217885 L-3.03579944,13.4217885 L-2.56756766,7.3235449 Z" id="Rectangle-16-Copy" fill="#483740" sketch:type="MSShapeGroup" mask="url(#mask-4)">
                            <g transform="translate(6.482100, 10.372667) rotate(87.000000) translate(-6.482100, -10.372667) "></g>
                        </path>
                        <path d="M8.86545393,2.56167523 L25.3942654,4.44592967 L23.3446703,8.1191211 L8.86545393,9.47798178 L8.86545393,2.56167523 Z" id="Rectangle-16-Copy-2" fill="#483740" sketch:type="MSShapeGroup" mask="url(#mask-4)">
                            <g transform="translate(17.129860, 6.019829) rotate(87.000000) translate(-17.129860, -6.019829) "></g>
                        </path>
                        <mask id="mask-6" sketch:name="Mask Copy" fill="white">
                            <use xlink:href="#path-5"></use>
                        </mask>
                        <use id="Mask-Copy" fill-opacity="0.599999964" fill="#2D2D2D" sketch:type="MSShapeGroup" xlink:href="#path-5"></use>
                    </g>
                </g>
                <g id="asteroid" transform="translate(1196.000000, 907.000000)" sketch:type="MSShapeGroup">
                    <path d="M0,97 L6,106 L17,106 L21,99 L20,91 L9,86 L0,97 Z" id="Path-267" fill="#5E3D50"></path>
                    <path d="M0,97 L6,106 L17,106 L21,99 L20,91 C20,91 17,99 16,101 C12,102 8,102 8,102 L0,97 Z" id="Path-267-Copy" fill="#432A38"></path>
                    <path d="M15.3424463,86.0039668 L26.3424463,41.0039668 L23.3424463,64.0039668 L33.3424463,25.0039668 L27.3424463,60.0039668 L40.3424463,20.0039668 L28.3424463,65.0039668 L44.3424463,27.0039668 L23.3424463,88.1887583 L15.3424463,86.0039668 Z" id="Path-268" fill="#3F372D" transform="translate(29.842446, 54.096363) rotate(8.000000) translate(-29.842446, -54.096363) "></path>
                    <path d="M39,52 L24,81 L25,82 L39,52 Z" id="Path-269" fill="#3F3729"></path>
                    <path d="M60.167342,2.22044605e-16 L37,43 C37,43 33.8209476,49.8209475 34.0000001,50 C34.1542809,50.1542808 38.9999998,43 38.9999998,43 L60.167342,2.22044605e-16 Z" id="Path-269-Copy-4" fill="#3F3729"></path>
                    <path d="M44.9999999,9.0000006 L35.9999999,34.9975401 C35.9999999,34.9975401 33.3471604,41.8184876 33.5262129,41.9975401 C33.6804937,42.1518209 36.9999999,34.9975401 36.9999999,34.9975401 L44.9999999,9.0000006 Z" id="Path-269-Copy-5" fill="#3F3729"></path>
                    <path d="M32.1005769,28.2445265 L10.8994231,70.7554735 L11.8994231,71.7554735 L32.1005769,28.2445265 Z" id="Path-269-Copy-3" fill="#3F3729" transform="translate(21.500000, 50.000000) rotate(-5.000000) translate(-21.500000, -50.000000) "></path>
                    <path d="M33,55 L18,84 L19,85 L33,55 Z" id="Path-269-Copy-2" fill="#292929" transform="translate(25.500000, 70.000000) rotate(2.000000) translate(-25.500000, -70.000000) "></path>
                    <path d="M31.2555157,58.1890518 L11.2321435,77.2249611 L12.7847208,79.0208429 L31.2555157,58.1890518 Z" id="Path-269-Copy" fill="#292929" transform="translate(21.243830, 68.604947) rotate(-22.000000) translate(-21.243830, -68.604947) "></path>
                </g>
                <g id="asteroid-copy" transform="translate(253.564463, 960.535026) rotate(-225.000000) translate(-253.564463, -960.535026) translate(240.564463, 938.535026)" sketch:type="MSShapeGroup">
                    <path d="M1,39.6103884 L3.57383846,43.4711461 L8.2925423,43.4711461 L10.0084346,40.4683346 L9.57946153,37.03655 L4.86075769,34.8916846 L1,39.6103884 Z" id="Path-267" fill="#2A3236"></path>
                    <path d="M1,39.6103884 L3.57383846,43.4711461 L8.2925423,43.4711461 L10.0084346,40.4683346 L9.57946153,37.03655 C9.57946153,37.03655 8.2925423,40.4683346 7.86356922,41.3262807 C6.14767692,41.7552538 4.43178461,41.7552538 4.43178461,41.7552538 L1,39.6103884 Z" id="Path-267-Copy" fill="#272A2D"></path>
                    <path d="M19.1441635,18.8923864 L12.7095674,31.3326056 L13.1385405,31.7615787 L19.1441635,18.8923864 Z" id="Path-269" fill="#373129"></path>
                    <path d="M25.3959563,0.828427125 L15.4577903,19.2742694 C15.4577903,19.2742694 14.0940624,22.2002722 14.1708711,22.277081 C14.2370534,22.3432633 16.3157363,19.2742694 16.3157363,19.2742694 L25.3959563,0.828427125 Z" id="Path-269-Copy-4" fill="#373129"></path>
                    <path d="M20.3037884,1.86075794 L16.4430307,13.0130025 C16.4430307,13.0130025 15.305034,15.9390053 15.3818427,16.015814 C15.448025,16.0819963 16.8720038,13.0130025 16.8720038,13.0130025 L20.3037884,1.86075794 Z" id="Path-269-Copy-5" fill="#373129"></path>
                    <path d="M12.6489629,13.6516753 L3.5542387,31.9405367 L4.1199892,32.3167001 L12.6489629,13.6516753 L12.6489629,13.6516753 Z" id="Path-269-Copy-3" fill="#373129" transform="translate(8.101601, 22.984188) rotate(-10.000000) translate(-8.101601, -22.984188) "></path>
                    <path d="M15.1561115,21.5935192 L8.72151538,34.0114037 L9.10932594,34.4627115 L15.1561115,21.5935192 L15.1561115,21.5935192 Z" id="Path-269-Copy-2" fill="#292929"></path>
                    <path d="M14.4077748,22.9615366 L5.81828717,31.5287338 L7.40502509,31.8978141 L14.4077748,22.9615366 L14.4077748,22.9615366 Z" id="Path-269-Copy" fill="#292929"></path>
                    <path d="M10.1923882,34.0911652 L6.65685425,33.3840584 L14.4350288,14.2921753 L12.3137085,24.898777 L16.5563492,20.6561363 L10.1923882,34.0911652 Z" id="Path-284" fill="#39332B"></path>
                </g>
                <g id="404" transform="translate(627.000000, 701.000000)" sketch:type="MSShapeGroup">
                    <g id="4-+-4-copy-5-+-4-+-4-copy-8" transform="translate(0.000000, 59.000000)" stroke="#2D2D2D" stroke-width="2">
                        <path d="M88.8886969,63.1607216 C86.1720622,62.7985036 82.7309916,62.7985036 78.9277031,62.9796126 C81.8254467,43.4198428 84.7231904,26.5767078 86.5342802,16.072387 C87.0776071,13.1746433 85.2665173,12.4502074 82.7309916,10.6391176 C78.9277031,7.92248288 68.6044912,3.3947584 61.541241,1.94588656 C61.541241,1.94588656 61.3601321,1.94588656 61.1790231,1.76477758 C58.6434974,1.04034167 54.2968819,-1.67629302 51.0369202,1.5836686 C32.5638043,19.8756755 12.4607076,58.6329971 6.30300234,74.3894783 C5.7596754,75.2950232 5.39745744,76.3816771 5.39745744,77.6494399 C5.39745744,81.4527285 8.83852805,84.3504722 11.9173807,89.6026326 C12.8229256,91.2326134 15.5395603,93.9492481 20.0672848,93.4059211 C23.1461374,93.0437032 31.6582595,92.1381583 41.8003623,91.2326134 C41.4381443,96.8469917 41.2570354,101.918043 41.2570354,106.264659 C41.2570354,108.619075 41.8003623,110.611274 43.0681252,112.241255 C47.4147407,117.674524 55.5646447,123.651121 67.6989463,129.08439 C70.2344721,130.171044 71.6833439,127.816627 71.8644529,125.281102 C72.5888888,113.1468 74.0377606,100.65028 75.4866325,88.6970877 C85.2665173,87.9726518 93.5975304,87.6104338 97.21971,87.7915428 C99.2119087,87.9726518 100.660781,86.161562 100.660781,83.0827093 C100.660781,77.8305489 95.2275112,67.1451191 93.7786394,65.5151383 C92.5108765,64.0662665 90.6997867,62.7985036 88.8886969,63.1607216 L88.8886969,63.1607216 Z M46.8714137,42.8765159 C45.7847598,50.483093 44.8792149,58.6329971 43.97367,66.6017922 L33.1071313,68.412882 C34.3748941,64.0662665 39.6270545,53.1997277 46.8714137,42.8765159 L46.8714137,42.8765159 Z" id="4-copy-3" fill="#D48D36"></path>
                        <path d="M84.2068787,64.0957865 C81.4902441,63.7335686 78.0491734,63.7335686 74.2458849,63.9146775 C77.1436285,44.3549078 80.0413722,27.5117727 81.852462,17.0074519 C82.395789,14.1097082 80.5846992,13.3852723 78.0491734,11.5741825 C74.2458849,8.85754782 63.9226731,4.32982333 56.8594229,2.8809515 C56.8594229,2.8809515 56.6783139,2.8809515 56.4972049,2.69984252 C53.9616792,1.9754066 49.6150637,-0.741228089 46.3551021,2.51873354 C27.8819862,20.8107405 7.77888946,59.568062 1.62118416,75.3245432 C1.07785722,76.2300881 0.715639263,77.316742 0.715639263,78.5845049 C0.715639263,82.3877934 4.15670987,85.2855371 7.23556252,90.5376975 C8.14110742,92.1676783 10.8577421,94.884313 15.3854666,94.3409861 C18.4643192,93.9787681 26.9764413,93.0732232 37.1185441,92.1676783 C36.7563262,97.7820567 36.5752172,102.853108 36.5752172,107.199724 C36.5752172,109.55414 37.1185441,111.546339 38.386307,113.17632 C42.7329225,118.609589 50.8828265,124.586186 63.0171282,130.019455 C65.5526539,131.106109 67.0015257,128.751692 67.1826347,126.216166 C67.9070706,114.081865 69.3559424,101.585345 70.8048143,89.6321526 C80.5846992,88.9077167 88.9157122,88.5454987 92.5378918,88.7266077 C94.5300906,88.9077167 95.9789624,87.0966269 95.9789624,84.0177742 C95.9789624,78.7656138 90.545693,68.0801841 89.0968212,66.4502033 C87.8290583,65.0013314 86.0179685,63.7335686 84.2068787,64.0957865 L84.2068787,64.0957865 Z M42.1895955,43.8115808 C41.1029417,51.418158 40.1973968,59.568062 39.2918519,67.5368571 L28.4253131,69.3479469 C29.693076,65.0013314 34.9452364,54.1347927 42.1895955,43.8115808 L42.1895955,43.8115808 Z" id="4-copy-3" fill="#F1A33F"></path>
                    </g>
                    <g id="4-+-4-copy-6-+-4-+-4-copy-7" transform="translate(219.000000, 0.000000)" stroke="#2D2D2D" stroke-width="2">
                        <path d="M112.445278,81.6678132 C108.988085,81.2068541 104.608974,81.2068541 99.7689038,81.4373336 C103.456576,56.5455448 107.144249,35.1109488 109.449044,21.7431363 C110.140483,18.0554639 107.835687,17.1335458 104.608974,14.8287505 C99.7689038,11.3715576 86.6315708,5.60956945 77.6428693,3.76573324 C77.6428693,3.76573324 77.4123898,3.76573324 77.1819102,3.53525372 C73.9551969,2.61333561 68.4236882,-0.843857286 64.2750568,3.30477419 C40.7661451,26.5832064 15.1829176,75.905825 7.34661374,95.9575438 C6.65517516,97.1099414 6.1942161,98.4928186 6.1942161,100.106175 C6.1942161,104.946245 10.5733271,108.633918 14.4914791,115.317824 C15.6438767,117.39214 19.1010696,120.849333 24.8630577,120.157894 C28.7812097,119.696935 39.6137474,118.544537 52.5206009,117.39214 C52.0596419,124.537005 51.8291623,130.990432 51.8291623,136.52194 C51.8291623,139.518174 52.5206009,142.053449 54.1339576,144.127765 C59.6654662,151.042151 70.0370449,158.647975 85.4791732,165.562361 C88.7058866,166.945238 90.5497228,163.949004 90.7802023,160.722291 C91.7021204,145.280162 93.5459566,129.377075 95.3897928,114.165426 C107.835687,113.243508 118.437745,112.782549 123.047336,113.013029 C125.582611,113.243508 127.426447,110.938713 127.426447,107.020561 C127.426447,100.336655 120.512061,86.7383627 118.668225,84.664047 C117.054868,82.8202108 114.750073,81.2068541 112.445278,81.6678132 L112.445278,81.6678132 Z M58.9740277,55.8541062 C57.5911505,65.5342463 56.4387529,75.905825 55.2863552,86.0469242 L41.4575836,88.3517194 C43.0709403,82.8202108 49.7548466,68.9914392 58.9740277,55.8541062 L58.9740277,55.8541062 Z" id="4-copy-3" fill="#D48D36"></path>
                        <path d="M106.749626,80.5227584 C103.292433,80.0617994 98.9133217,80.0617994 94.0732517,80.2922789 C97.7609241,55.4004901 101.448596,33.9658941 103.753392,20.5980816 C104.44483,16.9104092 102.140035,15.9884911 98.9133217,13.6836958 C94.0732517,10.2265029 80.9359186,4.46451473 71.9472171,2.62067852 C71.9472171,2.62067852 71.7167376,2.62067852 71.4862581,2.39019899 C68.2595447,1.46828089 62.7280361,-1.98891201 58.5794046,2.15971947 C35.0704929,25.4381516 9.48726546,74.7607703 1.65096156,94.8124891 C0.959522982,95.9648867 0.49856393,97.3477639 0.49856393,98.9611206 C0.49856393,103.801191 4.87767493,107.488863 8.79582688,114.172769 C9.94822451,116.247085 13.4054174,119.704278 19.1674056,119.012839 C23.0855575,118.55188 33.9180953,117.399483 46.8249487,116.247085 C46.3639897,123.39195 46.1335102,129.845377 46.1335102,135.376886 C46.1335102,138.37312 46.8249487,140.908394 48.4383054,142.98271 C53.9698141,149.897096 64.3413927,157.50292 79.783521,164.417306 C83.0102344,165.800183 84.8540706,162.803949 85.0845501,159.577236 C86.0064682,144.135108 87.8503044,128.23202 89.6941407,113.020372 C102.140035,112.098454 112.742093,111.637495 117.351684,111.867974 C119.886959,112.098454 121.730795,109.793658 121.730795,105.875506 C121.730795,99.1916001 114.816409,85.593308 112.972573,83.5189923 C111.359216,81.6751561 109.054421,80.0617994 106.749626,80.5227584 L106.749626,80.5227584 Z M53.2783755,54.7090515 C51.8954983,64.3891916 50.7431007,74.7607703 49.5907031,84.9018694 L35.7619315,87.2066647 C37.3752882,81.6751561 44.0591944,67.8463845 53.2783755,54.7090515 L53.2783755,54.7090515 Z" id="4-copy-3" fill="#F1A33F"></path>
                    </g>
                    <g id="Planet" transform="translate(157.951637, 100.697567) rotate(-6.000000) translate(-157.951637, -100.697567) translate(72.451637, 18.197567)">
                        <path d="M94.2081467,158.817266 C145.499245,153.073995 164.340883,124.61504 164.340883,82.4244582 C164.340883,40.2338764 142.358976,11.7749227 94.2081467,6.0316539 C59.6651631,6.0316539 15.7013579,32.1134263 19.5060092,82.4244599 C23.3106606,132.735494 42.9170482,164.560537 94.2081467,158.817266 Z" id="Oval-34-Copy-7" stroke="#2D2D2D" stroke-width="2" fill="#F1A33F"></path>
                        <path d="M96.781824,157.391975 C148.072923,151.648704 163.035431,124.094405 163.333773,81.9351804 C163.035431,39.7132416 142.606,13.0699644 94.4760773,7.12777906 C74.3556764,7.32669563 113.284768,10.011927 139.474481,38.201633 C150.297061,49.8506844 154.334105,66.0180429 155.446603,87.1392589 C159.251252,159.372007 65.4290028,159.124197 96.781824,157.391975 Z" id="shadow" fill="#D48D36"></path>
                        <g id="Group" transform="translate(70.428771, 10.664540) rotate(-9.000000) translate(-70.428771, -10.664540) translate(54.428771, 3.164540)">
                            <path d="M3.24855678,12.8453704 L5.95568743,6.95790895 L13.5356533,9.63402778 L3.24855678,12.8453704 Z" id="Path-610" fill="#F1A33F"></path>
                            <path d="M15.3947233,0.345671321 C23.2019801,0.345668131 27.9728668,1.63195269 27.9728668,4.20451543 C27.9728668,6.77707816 21.0332014,8.49211999 16.6959105,8.49211999 C12.3586197,8.49211999 4.11776703,8.92088044 4.11776703,5.06203634 C4.11776703,1.20319223 7.58746639,0.345674511 15.3947233,0.345671321 Z" id="Path-607" stroke="#2D2D2D" stroke-width="2" fill="#D48D33"></path>
                            <path d="M27.8592341,4.96120637 C27.8592341,4.96120637 25.6935296,7.10210143 31.1077909,12.9895629" id="Path-608" stroke="#2D2D2D" stroke-width="2" stroke-linecap="round"></path>
                            <path d="M0.800788381,6.90062259 C0.800788381,6.90062259 -2.17655201,9.04151765 5.26679897,14.9289791" id="Path-608-Copy" stroke="#2D2D2D" stroke-width="2" stroke-linecap="round" transform="translate(2.739735, 10.914801) scale(-1, 1) translate(-2.739735, -10.914801) "></path>
                        </g>
                        <g id="Group-Copy-7" transform="translate(107.847523, 51.391701) rotate(6.000000) translate(-107.847523, -51.391701) translate(97.347523, 43.891701)">
                            <path d="M2.16570452,12.8453704 L3.97045829,6.95790895 L9.02376884,9.63402778 L2.16570452,12.8453704 Z" id="Path-610" fill="#F1A33F"></path>
                            <path d="M10.2631488,0.345671321 C15.4679868,0.345668131 18.6485778,1.63195269 18.6485778,4.20451543 C18.6485778,6.77707816 14.0221343,8.49211999 11.130607,8.49211999 C8.23907977,8.49211999 2.74517802,8.92088044 2.74517802,5.06203634 C2.74517802,1.20319223 5.05831093,0.345674511 10.2631488,0.345671321 Z" id="Path-607" stroke="#2D2D2D" stroke-width="2" fill="#D48D33"></path>
                            <path d="M18.5728227,4.96120637 C18.5728227,4.96120637 17.1290197,7.10210143 20.7385273,12.9895629" id="Path-608" stroke="#2D2D2D" stroke-width="2" stroke-linecap="round"></path>
                            <path d="M0.53385892,6.90062259 C0.53385892,6.90062259 -1.45103467,9.04151765 3.51119931,14.9289791" id="Path-608-Copy" stroke="#2D2D2D" stroke-width="2" stroke-linecap="round" transform="translate(1.826490, 10.914801) scale(-1, 1) translate(-1.826490, -10.914801) "></path>
                        </g>
                        <g id="Group-Copy-3" transform="translate(160.882197, 107.487809) rotate(-261.000000) translate(-160.882197, -107.487809) translate(147.882197, 99.487809)" stroke="#2D2D2D" stroke-width="2">
                            <path d="M13.3710977,0.00193595967 C20.5111357,0.00193595967 23.9705963,1.67648482 23.3107223,4.84379784 C22.6508482,8.01111085 17.8403065,9.85226218 14.2258975,9.85226218 C10.6114884,9.85226218 3.43147253,7.87574677 3.43147253,5.39506128 C3.43147253,2.91437578 6.2310598,0.00193595967 13.3710977,0.00193595967 Z" id="Path-607" fill="#986420"></path>
                            <path d="M23.2160284,5.33024201 C23.2160284,5.33024201 21.4112747,6.7065317 25.9231591,10.4913283" id="Path-608" stroke-linecap="round"></path>
                            <path d="M1.3151551,7.12044526 C1.3151551,7.12044526 -1.50990648,11.4588873 4.692886,15.2436839" id="Path-608-Copy" stroke-linecap="round" transform="translate(2.683051, 11.182065) scale(-1, 1) translate(-2.683051, -11.182065) "></path>
                        </g>
                        <g id="Group-Copy-5" transform="translate(17.710065, 92.516556) rotate(-111.000000) translate(-17.710065, -92.516556) translate(1.710065, 80.016556)">
                            <path d="M22.5402952,8.2849704 C22.6764376,8.2849704 28.8511569,21.0972389 28.9364973,21.1152515 C30.8915244,21.5278941 3.68436267,16.8477768 3.68436267,16.8477768 L5.94030488,6.99745062 L12.8468173,10.2128019 L22.5402952,8.2849704 Z" id="Path-610" fill="#F1A33F"></path>
                            <path d="M13.3710977,0.00193595967 C20.5111357,0.00193595967 23.9705963,1.67648482 23.3107223,4.84379784 C22.6508482,8.01111085 17.8403065,9.85226218 14.2258975,9.85226218 C10.6114884,9.85226218 3.43147253,7.87574677 3.43147253,5.39506128 C3.43147253,2.91437578 6.2310598,0.00193595967 13.3710977,0.00193595967 Z" id="Path-607" stroke="#2D2D2D" stroke-width="2" fill="#D48D33"></path>
                            <path d="M23.2160284,5.33024201 C23.2160284,5.33024201 26.6060594,20.4799947 31.1179438,24.2647913" id="Path-608" stroke="#2D2D2D" stroke-width="2" stroke-linecap="round"></path>
                            <path d="M1.3151551,7.12044526 C1.3151551,7.12044526 -1.50990648,11.4588873 4.692886,15.2436839" id="Path-608-Copy" stroke="#2D2D2D" stroke-width="2" stroke-linecap="round" transform="translate(2.683051, 11.182065) scale(-1, 1) translate(-2.683051, -11.182065) "></path>
                        </g>
                        <g id="Group-Copy-8" transform="translate(130.110951, 149.401867) rotate(-198.000000) translate(-130.110951, -149.401867) translate(111.610951, 139.901867)">
                            <path d="M23.5396265,5.14078357 C23.6706131,5.14078357 31.7954424,13.4473001 31.8775508,13.461839 C33.7585385,13.7949043 3.08270185,14.0238955 3.08270185,14.0238955 L4.59158843,5.54866004 L13.6095022,5.14078357 L23.5396265,5.14078357 Z" id="Path-610" fill="#D48D36"></path>
                            <path d="M13.9114747,0.00156261376 C20.7811105,0.00156261376 24.109557,1.35317811 23.4746732,3.90968121 C22.8397894,6.4661843 15.7743797,5.38331175 12.2968528,5.38331175 C8.81932598,5.38331175 4.34827555,6.35692492 4.34827555,4.35463461 C4.34827555,2.3523443 7.04183894,0.00156261376 13.9114747,0.00156261376 Z" id="Path-607" stroke="#2D2D2D" stroke-width="2" fill="#986421"></path>
                            <path d="M23.3835655,4.30231561 C23.3835655,4.30231561 27.2548596,13.7300637 36.5129244,12.3041308" id="Path-608" stroke="#2D2D2D" stroke-width="2" stroke-linecap="round"></path>
                            <path d="M0.476190025,5.74728177 C0.476190025,5.74728177 0.476190027,14.2407265 4.94429032,18.3386473" id="Path-608-Copy" stroke="#2D2D2D" stroke-width="2" stroke-linecap="round" transform="translate(2.710240, 12.042965) scale(-1, 1) translate(-2.710240, -12.042965) "></path>
                        </g>
                        <g id="Group-Copy-10" transform="translate(160.660847, 58.099769) rotate(-272.000000) translate(-160.660847, -58.099769) translate(149.160847, 50.099769)">
                            <path d="M14.4449401,3.1546087 C14.5253191,3.1546087 19.5110682,8.25184904 19.5614535,8.26077073 C20.7157096,8.46515411 0.476846493,15.6221982 0.476846493,15.6221982 L2.81759864,3.40489947 L8.35138328,3.1546087 L14.4449401,3.1546087 Z" id="Path-610" fill="#D48D36"></path>
                            <path d="M8.53668677,0.00095888786 C12.7521945,0.00095888786 14.7946743,0.830369025 14.4050819,2.39915067 C14.0154896,3.96793231 9.67984641,3.30343456 7.54588448,3.30343456 C5.41192254,3.30343456 2.66829126,3.900886 2.66829126,2.67219346 C2.66829126,1.44350092 4.32117908,0.00095888786 8.53668677,0.00095888786 Z" id="Path-607" stroke="#2D2D2D" stroke-width="2" fill="#986421"></path>
                            <path d="M14.3491743,2.64008824 C14.3491743,2.64008824 16.7247689,8.42536505 22.4059207,7.55035055" id="Path-608" stroke="#2D2D2D" stroke-width="2" stroke-linecap="round"></path>
                            <path d="M0.292210939,3.52678241 C0.292210939,3.52678241 0.29221094,8.73873002 3.03403188,11.2533927" id="Path-608-Copy" stroke="#2D2D2D" stroke-width="2" stroke-linecap="round" transform="translate(1.663121, 7.390088) scale(-1, 1) translate(-1.663121, -7.390088) "></path>
                        </g>
                        <g id="Group-Copy-6" transform="translate(91.073473, 133.905967) rotate(-195.000000) translate(-91.073473, -133.905967) translate(82.573473, 126.905967)">
                            <path d="M12.2659041,4.50848811 C12.3399897,4.50848811 15.7001283,11.4806265 15.7465685,11.4904285 C16.8104488,11.714979 2.00494443,9.16816812 2.00494443,9.16816812 L3.23257569,3.8078498 L6.99093902,5.55756913 L12.2659041,4.50848811 Z" id="Path-610" fill="#F1A33F"></path>
                            <path d="M7.27624025,0.0010535042 C11.1616827,0.0010535042 13.0442408,0.91230403 12.6851527,2.63588207 C12.3260645,4.35946011 9.70827967,5.36137183 7.74140237,5.36137183 C5.77452507,5.36137183 1.8673275,4.28579813 1.8673275,2.93586681 C1.8673275,1.58593549 3.39079775,0.0010535042 7.27624025,0.0010535042 Z" id="Path-607" stroke="#2D2D2D" stroke-width="2" fill="#D48D33"></path>
                            <path d="M12.6336225,2.90059367 C12.6336225,2.90059367 14.4783984,11.1447366 16.9336609,13.2043348" id="Path-608" stroke="#2D2D2D" stroke-width="2" stroke-linecap="round"></path>
                            <path d="M0.715676801,3.87478062 C0.715676801,3.87478062 -0.821655973,6.23565981 2.55375936,8.29525807" id="Path-608-Copy" stroke="#2D2D2D" stroke-width="2" stroke-linecap="round" transform="translate(1.460054, 6.085019) scale(-1, 1) translate(-1.460054, -6.085019) "></path>
                        </g>
                        <g id="Group-Copy-4" transform="translate(50.965286, 58.447081) rotate(-58.000000) translate(-50.965286, -58.447081) translate(43.965286, 54.947081)">
                            <path d="M1.36782045,4.76322199 L2.50767083,3.02954928 L5.69925188,3.81758233 L1.36782045,4.76322199 Z" id="Path-610" fill="#F1A33F"></path>
                            <path d="M6.75595797,0.000886790171 C10.3635747,0.000886790171 12.1115218,0.767934521 11.77811,2.21876126 C11.4446983,3.66958799 9.01409618,4.51295004 7.18785902,4.51295004 C5.36162185,4.51295004 1.7338056,3.60758281 1.7338056,2.47127427 C1.7338056,1.33496572 3.14834122,0.000886790171 6.75595797,0.000886790171 Z" id="Path-607" stroke="#2D2D2D" stroke-width="2" fill="#D48D33"></path>
                            <path d="M11.7302645,2.441583 C11.7302645,2.441583 10.8183842,3.07200944 13.0980849,4.80568215" id="Path-608" stroke="#2D2D2D" stroke-width="2" stroke-linecap="round"></path>
                            <path d="M0.664502852,3.26160765 C0.664502852,3.26160765 -0.76290406,5.24888444 2.37115465,6.98255715" id="Path-608-Copy" stroke="#2D2D2D" stroke-width="2" stroke-linecap="round" transform="translate(1.355654, 5.122082) scale(-1, 1) translate(-1.355654, -5.122082) "></path>
                        </g>
                        <g id="Group-Copy" transform="translate(136.093190, 22.896512) rotate(35.000000) translate(-136.093190, -22.896512) translate(125.593190, 15.396512)">
                            <path d="M1.42206253,14.7973587 L3.97045829,3.47895448 C3.97045829,3.47895448 13.5302205,2.12310487 17.7136747,3.13167296 C19.1119513,3.46877648 20.7156506,7.51596932 20.7156506,7.51596932 L1.42206253,14.7973587 Z" id="Path-610" fill="#D48D36"></path>
                            <path d="M10.2631488,0.172835661 C15.4679868,0.172834066 18.6485778,0.815976345 18.6485778,2.10225771 C18.6485778,3.38853908 14.0221343,4.24605999 11.130607,4.24605999 C8.23907977,4.24605999 2.74517802,4.46044022 2.74517802,2.53101817 C2.74517802,0.601596117 5.05831093,0.172837255 10.2631488,0.172835661 Z" id="Path-607" stroke="#2D2D2D" stroke-width="2" fill="#986421"></path>
                            <path d="M18.5728227,2.48060318 C18.5728227,2.48060318 17.1290197,3.55105072 20.7385273,6.49478143" id="Path-608" stroke="#2D2D2D" stroke-width="2" stroke-linecap="round"></path>
                            <path d="M0.53385892,3.45031129 C0.53385892,3.45031129 -1.45103467,4.52075883 3.51119931,7.46448954" id="Path-608-Copy" stroke="#2D2D2D" stroke-width="2" stroke-linecap="round" transform="translate(1.826490, 5.457400) scale(-1, 1) translate(-1.826490, -5.457400) "></path>
                        </g>
                        <g id="Group-Copy-2" transform="translate(54.717863, 147.974258) rotate(-130.000000) translate(-54.717863, -147.974258) translate(44.217863, 138.474258)">
                            <path d="M2.16570452,15.5979497 L3.97045829,8.44888944 L9.02376884,11.6984623 L2.16570452,15.5979497 Z" id="Path-610" fill="#F1A33F"></path>
                            <path d="M10.2631488,0.419743747 C15.4679868,0.419739874 18.6485778,1.98165684 18.6485778,5.10548302 C18.6485778,8.2293092 14.0221343,10.31186 11.130607,10.31186 C8.23907977,10.31186 2.74517802,10.8324977 2.74517802,6.14675841 C2.74517802,1.46101914 5.05831093,0.41974762 10.2631488,0.419743747 Z" id="Path-607" stroke="#2D2D2D" stroke-width="2" fill="#D48D33"></path>
                            <path d="M18.5728227,6.02432202 C18.5728227,6.02432202 17.1290197,8.62398031 20.7385273,15.7730406" id="Path-608" stroke="#2D2D2D" stroke-width="2" stroke-linecap="round"></path>
                            <path d="M0.53385892,8.37932743 C0.53385892,8.37932743 -1.45103467,10.9789857 3.51119931,18.128046" id="Path-608-Copy" stroke="#2D2D2D" stroke-width="2" stroke-linecap="round" transform="translate(1.826490, 13.253687) scale(-1, 1) translate(-1.826490, -13.253687) "></path>
                        </g>
                        <g id="Group-Copy-9" transform="translate(77.369472, 101.026550) rotate(-156.000000) translate(-77.369472, -101.026550) translate(71.369472, 98.026550)">
                            <path d="M1.22493992,4.41116298 L2.24572318,2.38937995 L5.10391631,3.30837224 L1.22493992,4.41116298 Z" id="Path-610" fill="#F1A33F"></path>
                            <path d="M5.80491962,0.118705222 C8.74881785,0.118704126 10.5477858,0.560420531 10.5477858,1.44385115 C10.5477858,2.32728177 7.93103204,2.91623552 6.29556095,2.91623552 C4.66008986,2.91623552 1.55269479,3.06347395 1.55269479,1.73832802 C1.55269479,0.413182095 2.86102139,0.118706317 5.80491962,0.118705222 Z" id="Path-607" stroke="#2D2D2D" stroke-width="2" fill="#D48D33"></path>
                            <path d="M10.5049381,1.70370252 C10.5049381,1.70370252 9.68831147,2.43889635 11.729878,4.46067938" id="Path-608" stroke="#2D2D2D" stroke-width="2" stroke-linecap="round"></path>
                            <path d="M0.301954904,2.36970753 C0.301954904,2.36970753 -0.820716894,3.10490136 1.9859626,5.12668439" id="Path-608-Copy" stroke="#2D2D2D" stroke-width="2" stroke-linecap="round" transform="translate(1.033078, 3.748196) scale(-1, 1) translate(-1.033078, -3.748196) "></path>
                        </g>
                    </g>
                    <g id="-lost-in-space-+--lost-in-space" transform="translate(9.000000, 177.000000)" stroke="#2D2D2D">
                        <path d="M15.671429,53.0777023 C14.452868,53.1965863 12.550724,53.4046333 10.3513699,53.5235173 L10.2622069,53.5235173 C9.81639194,53.5235173 9.54890293,53.2857493 9.54890293,52.8102133 L9.54890293,52.6616083 C9.99471794,47.9359693 10.7674639,42.6456312 11.1835579,40.3273932 C11.1835579,40.2679512 11.2132789,40.2085092 11.2132789,40.1490672 C11.2132789,39.7329732 10.9160689,39.4060422 10.5594169,39.1385532 C9.78667094,38.5441332 7.02261792,37.8308292 6.01210391,37.8308292 C5.53656791,37.8308292 5.38796291,38.1577602 5.26907891,38.3955282 C4.2288439,40.6840452 3.2777719,51.0566743 3.2777719,56.0200813 C3.2777719,56.3172913 3.3372139,56.5550593 3.4263769,56.7928273 C3.4263769,56.9414323 3.4560979,57.0900373 3.5452609,57.1792003 C5.32852091,59.1407863 8.59783093,59.7352063 11.4807679,59.7352063 C13.888169,59.7352063 16.028081,59.3191123 16.830548,58.8732973 C17.216921,58.6652503 17.48441,58.4274823 17.514131,57.5655733 C17.514131,56.6442223 17.395247,54.8906833 16.563059,53.4046333 C16.414454,53.1371443 16.206407,53.0479813 15.938918,53.0479813 C15.849755,53.0479813 15.760592,53.0777023 15.671429,53.0777023 L15.671429,53.0777023 Z M27.6655037,34.5284959 C22.5898173,34.5284959 18.564273,41.1093858 18.564273,49.5105218 C18.564273,55.1112792 20.9795996,57.8416484 22.4147937,58.7867762 C23.814983,59.731904 26.6153617,60.2919797 29.065693,60.2919797 C34.1413794,60.2919797 38.131919,53.7460946 38.131919,45.3099538 C38.131919,39.7442011 35.7515971,37.0138319 34.3164031,36.0687041 C32.881209,35.1585811 30.1158351,34.5284959 27.6655037,34.5284959 L27.6655037,34.5284959 Z M28.9956836,39.9892343 C30.0808303,39.9892343 31.0959676,40.7243337 31.0959676,44.4698402 C31.0959676,50.3856401 29.730783,53.816104 29.0306883,54.4461892 C28.8556646,54.6212129 28.5056173,54.866246 27.7705179,54.866246 C26.6853712,54.866246 25.6702339,54.0961419 25.6702339,50.4206449 C25.6702339,44.5048449 27.0354185,41.074381 27.7005084,40.3742864 C27.8755321,40.1992627 28.2605842,39.9892343 28.9956836,39.9892343 L28.9956836,39.9892343 Z M49.6781974,51.2442468 C50.0995751,52.6616083 49.486662,53.044679 48.0693006,53.044679 C47.2648521,53.044679 45.5793412,52.8914507 43.8555232,51.9720811 C43.0127677,51.5123963 41.4038709,49.8651924 40.331273,50.209956 C39.8715882,50.3631843 39.5651317,50.6313337 39.6034388,52.2402306 C39.6417458,53.3894426 40.4078872,55.9943231 42.2083193,57.3350704 C43.8172161,58.5225895 45.8857977,60.0548722 50.4826458,60.0548722 C54.1218171,60.0548722 57.8376026,57.8713694 57.8376026,52.8148366 C57.8376026,44.7320454 47.2648521,48.0647603 47.4563875,41.9356296 C47.4946945,40.0202762 49.2951267,38.4113794 51.0189447,38.4113794 C52.359692,38.4113794 52.934298,39.5222843 52.2447708,41.9356296 C51.746779,43.6211405 51.8617002,44.463896 53.7770535,44.8469666 C54.6581161,45.1151161 55.3859503,45.4215726 55.9222493,45.2683444 C56.9565401,45.0001949 57.4545319,43.7360617 57.6460673,43.3912981 C59.216657,40.5948822 59.216657,38.6412218 59.4081923,36.9940179 C59.5997277,35.3468141 58.2206733,34.1209879 56.7650047,33.5080748 C54.8879585,32.7036264 53.0109122,31.9374851 49.9463468,31.9374851 C45.4261129,31.9374851 39.9098953,36.2278766 39.9098953,42.0122437 C39.9098953,49.5587359 48.873749,48.5627521 49.6781974,51.2442468 L49.6781974,51.2442468 Z M64.2401665,37.7535546 C65.4884485,37.6287264 66.9863869,37.587117 68.6091535,37.587117 C68.3594971,40.0004622 67.0696057,48.8216551 66.9863869,55.7288155 C66.9863869,56.2697377 67.1112151,56.7274411 67.4024809,57.1019257 C68.4011065,58.3502077 71.1473269,59.6400991 73.9351568,59.7649273 C74.9753918,59.8065367 75.5579234,58.7246923 75.5579234,56.8938787 C75.5995328,48.1559047 76.3068926,45.4096842 76.7229866,40.6662126 C76.8062054,39.7924152 76.9310336,37.6703358 74.6009072,37.3374606 L74.3928602,37.3374606 C79.5524258,37.3374606 83.3804906,37.9616016 84.0046316,38.003211 C85.3777418,38.0448204 85.5857888,36.8797572 85.3777418,36.1723974 C84.6287726,33.4677864 83.2972718,30.7631754 82.381865,30.305472 C81.8409428,30.0142062 78.3873626,29.9309874 77.0142524,29.8477686 C70.7312329,29.5148934 62.5341811,29.7645498 60.4121017,30.0558156 C59.8295701,30.1390344 59.8295701,30.6799566 59.8711795,31.3873164 C60.0376171,33.426177 61.2858991,35.7979128 61.6187743,36.1723974 C62.4925717,37.2126324 62.7006187,37.6287264 64.2401665,37.7535546 L64.2401665,37.7535546 Z M103.950065,29.1602228 C104.086781,28.4310676 103.722204,28.0664899 102.993048,27.7930567 C101.853743,27.3373347 97.5699566,26.6993239 96.0205018,26.6993239 C95.2913466,26.6993239 95.0179133,27.1550459 94.9267689,27.5651957 C94.1976137,30.1628112 91.8278593,47.8903971 91.8278593,55.5009545 C91.8278593,56.0933931 91.9645759,56.5946873 92.2835813,57.0048371 C93.3773141,58.3720031 97.0230902,59.8758857 100.076428,59.8758857 C100.760011,59.8758857 101.124588,59.5568803 101.124588,58.9188695 C101.124588,48.2549747 103.084193,34.3554536 103.950065,29.1602228 L103.950065,29.1602228 Z M135.834093,27.3637534 C135.938447,26.5289235 135.677563,25.2766787 134.89491,24.9636175 C133.538311,24.4418489 128.633685,23.0330735 126.911849,23.0330735 C126.077019,23.0330735 125.868312,23.607019 125.607427,24.0244339 C124.042121,26.2680392 123.572529,32.6857938 122.89423,40.6688545 L121.537632,33.2597394 C120.963686,30.7552498 120.494094,27.1550459 119.972326,25.5897399 C120.024502,24.9114407 119.607087,24.5462026 118.876611,24.2331414 C117.520013,23.7113727 114.07634,22.9808966 111.780557,22.9808966 C110.945728,22.9808966 110.632666,23.5026653 110.476136,23.9722571 C109.693483,26.9463385 107.136816,44.6864732 106.928109,53.40001 C106.928109,54.0783093 107.136816,56.2175608 108.545592,57.73069 C109.90219,59.1916423 112.40668,60.1308259 115.90253,60.1308259 C116.685183,60.1308259 117.102598,59.7655878 117.102598,59.0351117 C117.102598,53.4521869 117.467836,47.2431397 117.989605,41.6080381 C118.511373,43.7994665 118.824434,46.1996024 119.450557,47.921439 C120.38974,50.7389898 121.06804,53.7130712 121.433278,54.8609623 C121.537632,55.1740235 121.694162,55.4349078 121.90287,55.6957922 C123.102938,57.2610982 127.329264,59.2438191 130.772937,59.2438191 C131.607767,59.2438191 131.973005,58.8785811 132.025182,58.1481049 C132.54695,45.938718 134.790556,33.3119162 135.834093,27.3637534 L135.834093,27.3637534 Z M162.892752,46.6579663 C163.546614,48.8573203 162.595542,49.4517403 160.396188,49.4517403 C159.147906,49.4517403 156.532458,49.2139723 153.857568,47.7873643 C152.549844,47.0740603 150.05328,44.5180542 148.388904,45.0530322 C147.6756,45.2908002 147.200064,45.7068942 147.259506,48.2034583 C147.318948,49.9867183 148.507788,54.0287743 151.301562,56.1092443 C153.798126,57.9519463 157.007994,60.3296263 164.141034,60.3296263 C169.788024,60.3296263 175.553898,56.9414323 175.553898,49.0950883 C175.553898,36.5528262 159.147906,41.7242802 159.445116,32.2135602 C159.504558,29.2414602 162.298332,26.7448961 164.973222,26.7448961 C167.053692,26.7448961 167.945322,28.4687142 166.875366,32.2135602 C166.10262,34.8290082 166.280946,36.1367322 169.253046,36.7311522 C170.620212,37.1472462 171.74961,37.6227822 172.581798,37.3850142 C174.186732,36.9689202 174.959478,35.0073342 175.256688,34.4723562 C177.69381,30.1330902 177.69381,27.1015481 177.99102,24.5455421 C178.28823,21.9895361 176.148318,20.0873921 173.889522,19.1363201 C170.976864,17.8880381 168.064206,16.6991981 163.308846,16.6991981 C156.29469,16.6991981 147.735042,23.3567021 147.735042,32.3324442 C147.735042,44.0425182 161.64447,42.4970262 162.892752,46.6579663 L162.892752,46.6579663 Z M180.868013,20.3905463 C181.194944,21.1751807 182.764213,24.1175597 183.810392,25.6868285 C182.764213,29.740773 180.998785,42.7526268 180.998785,53.4105775 C180.998785,54.2605981 181.194944,54.9798463 181.652647,55.5683221 C183.221916,57.5299081 187.79895,59.6876527 192.179826,59.6876527 C193.160619,59.6876527 193.618322,59.2299493 193.683708,58.3145425 C193.945253,51.2528329 194.33757,45.8257782 194.795274,41.183358 C195.056819,41.510289 195.38375,41.83722 195.38375,41.83722 C196.75686,43.6026474 197.60688,45.1719162 202.837776,43.8641922 C211.272596,41.7718338 215.261154,33.4024002 215.261154,25.8829871 C215.261154,22.7444495 213.168796,17.8404845 212.253389,17.1212363 C210.68412,15.9442847 199.568466,12.6095885 198.456901,12.6095885 C190.283626,12.6095885 182.764213,16.6635329 181.194944,17.9058707 C180.541082,18.4289603 180.475696,19.2789809 180.868013,20.3905463 L180.868013,20.3905463 Z M196.429929,27.7138007 C196.75686,25.5560561 195.449136,24.5098769 194.468343,24.1175597 C194.33757,24.1175597 194.272184,24.0521735 194.141412,24.0521735 C195.514522,23.5290839 196.822246,23.2021529 198.064584,23.2021529 C201.530052,23.2021529 203.230094,25.6868285 203.230094,28.1061179 C203.230094,32.5523796 199.176149,35.625531 195.252977,36.2140068 C195.645294,33.1408554 196.037612,30.394635 196.429929,27.7138007 L196.429929,27.7138007 Z M218.728604,55.3959403 C220.670376,57.6844573 225.455457,59.4875313 229.893794,59.4875313 C230.86468,59.4875313 231.280774,58.7940413 231.280774,57.8925043 C231.211425,55.6039873 231.280774,53.0380743 231.488821,50.4721613 C234.33213,50.3334633 237.10609,50.0560673 239.602654,49.7786713 C240.088097,53.8702623 240.57354,56.7135713 241.197681,57.2683633 C243.139453,59.0714373 248.340628,59.4875313 252.778964,59.4875313 C253.74985,59.4875313 254.304642,58.9327393 254.165944,58.0312023 C254.096595,57.1296653 253.195058,52.1365373 252.36287,44.1614022 C250.698494,28.7659242 250.490447,15.9363591 250.2824,13.8558891 C250.143702,12.8156541 249.796957,12.3302111 248.687373,11.9141171 C246.884299,11.2206271 241.613775,10.31909 239.394607,10.31909 C238.354372,10.31909 237.938278,10.8738821 237.868929,11.5673721 C237.79958,11.9141171 237.79958,12.2608621 237.79958,12.7463051 C235.788459,12.1221641 233.430593,11.5673721 232.182311,11.1512781 C231.280774,10.9432311 230.86468,11.2899761 230.517935,11.8447681 C226.842437,16.9765941 222.404101,29.0433202 219.907537,39.7230662 C218.451208,39.7924152 217.202926,39.7924152 216.23204,39.7230662 C215.607899,39.7230662 215.261154,40.0698112 215.261154,40.6939522 C215.261154,42.0809322 216.856181,45.6870802 218.381859,48.1142953 C218.173812,49.9867183 218.035114,51.7204433 218.035114,53.2461213 C218.035114,54.2863563 218.173812,54.7717993 218.728604,55.3959403 L218.728604,55.3959403 Z M238.631768,38.6828312 L232.875801,39.0989252 C233.777338,33.6897032 235.02562,28.2111321 236.620647,23.3567021 C236.828694,22.9406081 237.036741,22.8019101 237.314137,22.8712591 C237.660882,22.9406081 237.868929,23.2180041 237.868929,23.8421451 C238.007627,28.4885282 238.285023,33.6897032 238.631768,38.6828312 L238.631768,38.6828312 Z M281.228565,16.8709194 C284.64648,16.8709194 285.937693,20.5926491 284.570527,25.3777301 C283.583129,28.7196915 283.659083,29.9349502 287.456766,30.6944868 C292.773523,32.2135602 294.292596,29.2513672 294.976179,28.2639695 C298.849816,22.7193518 299.077677,17.4785488 299.381492,14.2125411 C299.76126,10.1869967 296.419299,9.04769171 294.292596,7.83243303 C290.798728,5.78168402 285.178156,4.87024002 279.101863,5.02214735 C266.569508,5.40191569 258.594373,18.7697611 258.594373,37.7581779 C258.594373,54.6958456 267.177137,61 279.861399,61 C288.97584,61 292.469708,57.0504093 295.887623,52.8729576 C297.406697,51.0500696 297.634558,48.9233669 296.950975,46.6447569 L294.748318,40.9482319 C292.165894,36.3910119 287.684627,42.9230272 286.165554,44.1382859 C283.659083,46.1890349 281.684287,47.4042936 280.08926,47.4042936 C277.734697,47.4042936 274.012967,47.7081083 274.012967,39.7329732 C274.012967,26.8968035 276.595392,19.4533441 278.038511,17.9342708 C278.41828,17.5545024 279.633538,16.8709194 281.228565,16.8709194 L281.228565,16.8709194 Z M334.105527,35.5423122 C334.818831,35.5423122 336.166183,34.2742162 336.403951,33.5609122 C337.196511,31.4210002 338.385351,25.2390321 336.245439,24.5257281 C332.520407,23.3368881 327.130999,24.0501921 322.454895,24.9220081 C322.771919,22.9406081 323.168199,21.1177201 323.485223,19.3740881 C323.485223,19.2155761 323.564479,19.0570641 323.564479,18.8985521 C323.564479,17.7889681 322.771919,16.9171521 321.820847,16.2038481 C321.186799,15.8075681 320.235727,15.5698001 318.967631,15.6490561 C325.387367,14.0639361 331.807103,14.4602161 341.000799,14.4602161 C341.714103,14.4602161 343.061455,13.1921201 343.299223,12.4788161 C344.091783,10.338904 345.280623,4.07768001 343.457735,2.80958401 C342.506663,2.175536 339.970471,1.7 337.355023,1.7 C325.387367,1.7 312.310127,2.73032801 306.682951,7.64420003 C305.890391,8.35750404 304.384527,10.497416 304.939319,11.7655121 C305.652623,13.6676561 306.682951,17.5512001 307.475511,18.5022721 L307.713279,18.7400401 C307.634023,18.8192961 307.634023,18.8985521 307.634023,18.9778081 C305.652623,26.6656401 303.750479,37.6822242 303.354199,50.1254163 C303.354199,50.9179763 303.512711,52.3445843 303.750479,52.9786323 C303.750479,53.3749123 304.622295,55.3563123 304.860063,55.5940803 C308.822863,60.3494403 316.906975,60.8249763 324.594807,59.4776243 C330.142727,58.5265523 335.769903,59.0813443 337.909815,57.8925043 C338.940143,57.3377123 339.891215,56.5451523 340.525263,54.2467283 C341.080055,51.7897923 342.189639,50.6009523 340.763031,46.6381523 C340.446007,45.4493122 338.860887,45.3700562 337.989071,45.3700562 C334.739575,45.3700562 326.496951,45.7663362 320.632007,47.4307123 C318.333583,47.6684803 319.284655,46.7966643 319.284655,45.1322882 C319.680935,42.1205602 320.077215,39.4258562 320.473495,36.9689202 C324.357039,35.7800802 329.270911,35.5423122 334.105527,35.5423122 L334.105527,35.5423122 Z" id="-lost-in-space" fill="#B37A30"></path>
                        <path d="M12.671429,52.0777023 C11.452868,52.1965863 9.55072395,52.4046333 7.35136994,52.5235173 L7.26220694,52.5235173 C6.81639194,52.5235173 6.54890293,52.2857493 6.54890293,51.8102133 L6.54890293,51.6616083 C6.99471794,46.9359693 7.76746394,41.6456312 8.18355794,39.3273932 C8.18355794,39.2679512 8.21327894,39.2085092 8.21327894,39.1490672 C8.21327894,38.7329732 7.91606894,38.4060422 7.55941694,38.1385532 C6.78667094,37.5441332 4.02261792,36.8308292 3.01210391,36.8308292 C2.53656791,36.8308292 2.38796291,37.1577602 2.26907891,37.3955282 C1.2288439,39.6840452 0.2777719,50.0566743 0.2777719,55.0200813 C0.2777719,55.3172913 0.3372139,55.5550593 0.4263769,55.7928273 C0.4263769,55.9414323 0.456097901,56.0900373 0.545260901,56.1792003 C2.32852091,58.1407863 5.59783093,58.7352063 8.48076795,58.7352063 C10.888169,58.7352063 13.028081,58.3191123 13.830548,57.8732973 C14.216921,57.6652503 14.48441,57.4274823 14.514131,56.5655733 C14.514131,55.6442223 14.395247,53.8906833 13.563059,52.4046333 C13.414454,52.1371443 13.206407,52.0479813 12.938918,52.0479813 C12.849755,52.0479813 12.760592,52.0777023 12.671429,52.0777023 L12.671429,52.0777023 Z M24.6655037,33.5284959 C19.5898173,33.5284959 15.564273,40.1093858 15.564273,48.5105218 C15.564273,54.1112792 17.9795996,56.8416484 19.4147937,57.7867762 C20.814983,58.731904 23.6153617,59.2919797 26.065693,59.2919797 C31.1413794,59.2919797 35.131919,52.7460946 35.131919,44.3099538 C35.131919,38.7442011 32.7515971,36.0138319 31.3164031,35.0687041 C29.881209,34.1585811 27.1158351,33.5284959 24.6655037,33.5284959 L24.6655037,33.5284959 Z M25.9956836,38.9892343 C27.0808303,38.9892343 28.0959676,39.7243337 28.0959676,43.4698402 C28.0959676,49.3856401 26.730783,52.816104 26.0306883,53.4461892 C25.8556646,53.6212129 25.5056173,53.866246 24.7705179,53.866246 C23.6853712,53.866246 22.6702339,53.0961419 22.6702339,49.4206449 C22.6702339,43.5048449 24.0354185,40.074381 24.7005084,39.3742864 C24.8755321,39.1992627 25.2605842,38.9892343 25.9956836,38.9892343 L25.9956836,38.9892343 Z M46.6781974,50.2442468 C47.0995751,51.6616083 46.486662,52.044679 45.0693006,52.044679 C44.2648521,52.044679 42.5793412,51.8914507 40.8555232,50.9720811 C40.0127677,50.5123963 38.4038709,48.8651924 37.331273,49.209956 C36.8715882,49.3631843 36.5651317,49.6313337 36.6034388,51.2402306 C36.6417458,52.3894426 37.4078872,54.9943231 39.2083193,56.3350704 C40.8172161,57.5225895 42.8857977,59.0548722 47.4826458,59.0548722 C51.1218171,59.0548722 54.8376026,56.8713694 54.8376026,51.8148366 C54.8376026,43.7320454 44.2648521,47.0647603 44.4563875,40.9356296 C44.4946945,39.0202762 46.2951267,37.4113794 48.0189447,37.4113794 C49.359692,37.4113794 49.934298,38.5222843 49.2447708,40.9356296 C48.746779,42.6211405 48.8617002,43.463896 50.7770535,43.8469666 C51.6581161,44.1151161 52.3859503,44.4215726 52.9222493,44.2683444 C53.9565401,44.0001949 54.4545319,42.7360617 54.6460673,42.3912981 C56.216657,39.5948822 56.216657,37.6412218 56.4081923,35.9940179 C56.5997277,34.3468141 55.2206733,33.1209879 53.7650047,32.5080748 C51.8879585,31.7036264 50.0109122,30.9374851 46.9463468,30.9374851 C42.4261129,30.9374851 36.9098953,35.2278766 36.9098953,41.0122437 C36.9098953,48.5587359 45.873749,47.5627521 46.6781974,50.2442468 L46.6781974,50.2442468 Z M61.2401665,36.7535546 C62.4884485,36.6287264 63.9863869,36.587117 65.6091535,36.587117 C65.3594971,39.0004622 64.0696057,47.8216551 63.9863869,54.7288155 C63.9863869,55.2697377 64.1112151,55.7274411 64.4024809,56.1019257 C65.4011065,57.3502077 68.1473269,58.6400991 70.9351568,58.7649273 C71.9753918,58.8065367 72.5579234,57.7246923 72.5579234,55.8938787 C72.5995328,47.1559047 73.3068926,44.4096842 73.7229866,39.6662126 C73.8062054,38.7924152 73.9310336,36.6703358 71.6009072,36.3374606 L71.3928602,36.3374606 C76.5524258,36.3374606 80.3804906,36.9616016 81.0046316,37.003211 C82.3777418,37.0448204 82.5857888,35.8797572 82.3777418,35.1723974 C81.6287726,32.4677864 80.2972718,29.7631754 79.381865,29.305472 C78.8409428,29.0142062 75.3873626,28.9309874 74.0142524,28.8477686 C67.7312329,28.5148934 59.5341811,28.7645498 57.4121017,29.0558156 C56.8295701,29.1390344 56.8295701,29.6799566 56.8711795,30.3873164 C57.0376171,32.426177 58.2858991,34.7979128 58.6187743,35.1723974 C59.4925717,36.2126324 59.7006187,36.6287264 61.2401665,36.7535546 L61.2401665,36.7535546 Z M100.950065,28.1602228 C101.086781,27.4310676 100.722204,27.0664899 99.9930484,26.7930567 C98.8537434,26.3373347 94.5699566,25.6993239 93.0205018,25.6993239 C92.2913466,25.6993239 92.0179133,26.1550459 91.9267689,26.5651957 C91.1976137,29.1628112 88.8278593,46.8903971 88.8278593,54.5009545 C88.8278593,55.0933931 88.9645759,55.5946873 89.2835813,56.0048371 C90.3773141,57.3720031 94.0230902,58.8758857 97.0764276,58.8758857 C97.7600106,58.8758857 98.1245882,58.5568803 98.1245882,57.9188695 C98.1245882,47.2549747 100.084193,33.3554536 100.950065,28.1602228 L100.950065,28.1602228 Z M132.834093,26.3637534 C132.938447,25.5289235 132.677563,24.2766787 131.89491,23.9636175 C130.538311,23.4418489 125.633685,22.0330735 123.911849,22.0330735 C123.077019,22.0330735 122.868312,22.607019 122.607427,23.0244339 C121.042121,25.2680392 120.572529,31.6857938 119.89423,39.6688545 L118.537632,32.2597394 C117.963686,29.7552498 117.494094,26.1550459 116.972326,24.5897399 C117.024502,23.9114407 116.607087,23.5462026 115.876611,23.2331414 C114.520013,22.7113727 111.07634,21.9808966 108.780557,21.9808966 C107.945728,21.9808966 107.632666,22.5026653 107.476136,22.9722571 C106.693483,25.9463385 104.136816,43.6864732 103.928109,52.40001 C103.928109,53.0783093 104.136816,55.2175608 105.545592,56.73069 C106.90219,58.1916423 109.40668,59.1308259 112.90253,59.1308259 C113.685183,59.1308259 114.102598,58.7655878 114.102598,58.0351117 C114.102598,52.4521869 114.467836,46.2431397 114.989605,40.6080381 C115.511373,42.7994665 115.824434,45.1996024 116.450557,46.921439 C117.38974,49.7389898 118.06804,52.7130712 118.433278,53.8609623 C118.537632,54.1740235 118.694162,54.4349078 118.90287,54.6957922 C120.102938,56.2610982 124.329264,58.2438191 127.772937,58.2438191 C128.607767,58.2438191 128.973005,57.8785811 129.025182,57.1481049 C129.54695,44.938718 131.790556,32.3119162 132.834093,26.3637534 L132.834093,26.3637534 Z M159.892752,45.6579663 C160.546614,47.8573203 159.595542,48.4517403 157.396188,48.4517403 C156.147906,48.4517403 153.532458,48.2139723 150.857568,46.7873643 C149.549844,46.0740603 147.05328,43.5180542 145.388904,44.0530322 C144.6756,44.2908002 144.200064,44.7068942 144.259506,47.2034583 C144.318948,48.9867183 145.507788,53.0287743 148.301562,55.1092443 C150.798126,56.9519463 154.007994,59.3296263 161.141034,59.3296263 C166.788024,59.3296263 172.553898,55.9414323 172.553898,48.0950883 C172.553898,35.5528262 156.147906,40.7242802 156.445116,31.2135602 C156.504558,28.2414602 159.298332,25.7448961 161.973222,25.7448961 C164.053692,25.7448961 164.945322,27.4687142 163.875366,31.2135602 C163.10262,33.8290082 163.280946,35.1367322 166.253046,35.7311522 C167.620212,36.1472462 168.74961,36.6227822 169.581798,36.3850142 C171.186732,35.9689202 171.959478,34.0073342 172.256688,33.4723562 C174.69381,29.1330902 174.69381,26.1015481 174.99102,23.5455421 C175.28823,20.9895361 173.148318,19.0873921 170.889522,18.1363201 C167.976864,16.8880381 165.064206,15.6991981 160.308846,15.6991981 C153.29469,15.6991981 144.735042,22.3567021 144.735042,31.3324442 C144.735042,43.0425182 158.64447,41.4970262 159.892752,45.6579663 L159.892752,45.6579663 Z M177.868013,19.3905463 C178.194944,20.1751807 179.764213,23.1175597 180.810392,24.6868285 C179.764213,28.740773 177.998785,41.7526268 177.998785,52.4105775 C177.998785,53.2605981 178.194944,53.9798463 178.652647,54.5683221 C180.221916,56.5299081 184.79895,58.6876527 189.179826,58.6876527 C190.160619,58.6876527 190.618322,58.2299493 190.683708,57.3145425 C190.945253,50.2528329 191.33757,44.8257782 191.795274,40.183358 C192.056819,40.510289 192.38375,40.83722 192.38375,40.83722 C193.75686,42.6026474 194.60688,44.1719162 199.837776,42.8641922 C208.272596,40.7718338 212.261154,32.4024002 212.261154,24.8829871 C212.261154,21.7444495 210.168796,16.8404845 209.253389,16.1212363 C207.68412,14.9442847 196.568466,11.6095885 195.456901,11.6095885 C187.283626,11.6095885 179.764213,15.6635329 178.194944,16.9058707 C177.541082,17.4289603 177.475696,18.2789809 177.868013,19.3905463 L177.868013,19.3905463 Z M193.429929,26.7138007 C193.75686,24.5560561 192.449136,23.5098769 191.468343,23.1175597 C191.33757,23.1175597 191.272184,23.0521735 191.141412,23.0521735 C192.514522,22.5290839 193.822246,22.2021529 195.064584,22.2021529 C198.530052,22.2021529 200.230094,24.6868285 200.230094,27.1061179 C200.230094,31.5523796 196.176149,34.625531 192.252977,35.2140068 C192.645294,32.1408554 193.037612,29.394635 193.429929,26.7138007 L193.429929,26.7138007 Z M215.728604,54.3959403 C217.670376,56.6844573 222.455457,58.4875313 226.893794,58.4875313 C227.86468,58.4875313 228.280774,57.7940413 228.280774,56.8925043 C228.211425,54.6039873 228.280774,52.0380743 228.488821,49.4721613 C231.33213,49.3334633 234.10609,49.0560673 236.602654,48.7786713 C237.088097,52.8702623 237.57354,55.7135713 238.197681,56.2683633 C240.139453,58.0714373 245.340628,58.4875313 249.778964,58.4875313 C250.74985,58.4875313 251.304642,57.9327393 251.165944,57.0312023 C251.096595,56.1296653 250.195058,51.1365373 249.36287,43.1614022 C247.698494,27.7659242 247.490447,14.9363591 247.2824,12.8558891 C247.143702,11.8156541 246.796957,11.3302111 245.687373,10.9141171 C243.884299,10.2206271 238.613775,9.31909005 236.394607,9.31909005 C235.354372,9.31909005 234.938278,9.87388205 234.868929,10.5673721 C234.79958,10.9141171 234.79958,11.2608621 234.79958,11.7463051 C232.788459,11.1221641 230.430593,10.5673721 229.182311,10.1512781 C228.280774,9.94323105 227.86468,10.2899761 227.517935,10.8447681 C223.842437,15.9765941 219.404101,28.0433202 216.907537,38.7230662 C215.451208,38.7924152 214.202926,38.7924152 213.23204,38.7230662 C212.607899,38.7230662 212.261154,39.0698112 212.261154,39.6939522 C212.261154,41.0809322 213.856181,44.6870802 215.381859,47.1142953 C215.173812,48.9867183 215.035114,50.7204433 215.035114,52.2461213 C215.035114,53.2863563 215.173812,53.7717993 215.728604,54.3959403 L215.728604,54.3959403 Z M235.631768,37.6828312 L229.875801,38.0989252 C230.777338,32.6897032 232.02562,27.2111321 233.620647,22.3567021 C233.828694,21.9406081 234.036741,21.8019101 234.314137,21.8712591 C234.660882,21.9406081 234.868929,22.2180041 234.868929,22.8421451 C235.007627,27.4885282 235.285023,32.6897032 235.631768,37.6828312 L235.631768,37.6828312 Z M278.228565,15.8709194 C281.64648,15.8709194 282.937693,19.5926491 281.570527,24.3777301 C280.583129,27.7196915 280.659083,28.9349502 284.456766,29.6944868 C289.773523,31.2135602 291.292596,28.2513672 291.976179,27.2639695 C295.849816,21.7193518 296.077677,16.4785488 296.381492,13.2125411 C296.76126,9.18699671 293.419299,8.04769171 291.292596,6.83243303 C287.798728,4.78168402 282.178156,3.87024002 276.101863,4.02214735 C263.569508,4.40191569 255.594373,17.7697611 255.594373,36.7581779 C255.594373,53.6958456 264.177137,60 276.861399,60 C285.97584,60 289.469708,56.0504093 292.887623,51.8729576 C294.406697,50.0500696 294.634558,47.9233669 293.950975,45.6447569 L291.748318,39.9482319 C289.165894,35.3910119 284.684627,41.9230272 283.165554,43.1382859 C280.659083,45.1890349 278.684287,46.4042936 277.08926,46.4042936 C274.734697,46.4042936 271.012967,46.7081083 271.012967,38.7329732 C271.012967,25.8968035 273.595392,18.4533441 275.038511,16.9342708 C275.41828,16.5545024 276.633538,15.8709194 278.228565,15.8709194 L278.228565,15.8709194 Z M331.105527,34.5423122 C331.818831,34.5423122 333.166183,33.2742162 333.403951,32.5609122 C334.196511,30.4210002 335.385351,24.2390321 333.245439,23.5257281 C329.520407,22.3368881 324.130999,23.0501921 319.454895,23.9220081 C319.771919,21.9406081 320.168199,20.1177201 320.485223,18.3740881 C320.485223,18.2155761 320.564479,18.0570641 320.564479,17.8985521 C320.564479,16.7889681 319.771919,15.9171521 318.820847,15.2038481 C318.186799,14.8075681 317.235727,14.5698001 315.967631,14.6490561 C322.387367,13.0639361 328.807103,13.4602161 338.000799,13.4602161 C338.714103,13.4602161 340.061455,12.1921201 340.299223,11.4788161 C341.091783,9.33890405 342.280623,3.07768001 340.457735,1.80958401 C339.506663,1.175536 336.970471,0.7 334.355023,0.7 C322.387367,0.7 309.310127,1.73032801 303.682951,6.64420003 C302.890391,7.35750404 301.384527,9.49741605 301.939319,10.7655121 C302.652623,12.6676561 303.682951,16.5512001 304.475511,17.5022721 L304.713279,17.7400401 C304.634023,17.8192961 304.634023,17.8985521 304.634023,17.9778081 C302.652623,25.6656401 300.750479,36.6822242 300.354199,49.1254163 C300.354199,49.9179763 300.512711,51.3445843 300.750479,51.9786323 C300.750479,52.3749123 301.622295,54.3563123 301.860063,54.5940803 C305.822863,59.3494403 313.906975,59.8249763 321.594807,58.4776243 C327.142727,57.5265523 332.769903,58.0813443 334.909815,56.8925043 C335.940143,56.3377123 336.891215,55.5451523 337.525263,53.2467283 C338.080055,50.7897923 339.189639,49.6009523 337.763031,45.6381523 C337.446007,44.4493122 335.860887,44.3700562 334.989071,44.3700562 C331.739575,44.3700562 323.496951,44.7663362 317.632007,46.4307123 C315.333583,46.6684803 316.284655,45.7966643 316.284655,44.1322882 C316.680935,41.1205602 317.077215,38.4258562 317.473495,35.9689202 C321.357039,34.7800802 326.270911,34.5423122 331.105527,34.5423122 L331.105527,34.5423122 Z" id="-lost-in-space" stroke-width="1.5" fill="#F1A33F"></path>
                    </g>
                </g>
            </g>
        </g>
    </g>
</svg>