<?xml version="1.0" encoding="UTF-8" standalone="no"?>
<svg width="233px" height="39px" viewBox="0 0 233 39" version="1.1" xmlns="http://www.w3.org/2000/svg" xmlns:xlink="http://www.w3.org/1999/xlink" xmlns:sketch="http://www.bohemiancoding.com/sketch/ns">
    <!-- Generator: Sketch 3.3.2 (12043) - http://www.bohemiancoding.com/sketch -->
    <title>Artboard 12 Copy 2</title>
    <desc>Created with Sketch.</desc>
    <defs></defs>
    <g id="Desktop" stroke="none" stroke-width="1" fill="none" fill-rule="evenodd" sketch:type="MSPage">
        <g id="Artboard-12-Copy-2" sketch:type="MSArtboardGroup" fill="#FFFFFF">
            <g id="ATLAS-LOGO-Copy" sketch:type="MSLayerGroup">
                <path d="M151.021192,36 C151.720854,34.6693341 169.5,0 169.5,0 L172.5,0 L192.5,39 L188.978108,39 L170.953009,3.72930668 L154.557835,36 L171.5,36 L171.5,39 L153,39 L151.889926,37.3348887 L151,36.0393091 C151.00026,36.0393091 151.004238,36.0320514 151.011828,36.0177422 L151,36 L151.021192,36 Z M0.521192148,36 C1.2208543,34.6693341 19,0 19,0 L22,0 L42,39 L38.4781081,39 L20.4530085,3.72930668 L4.05783509,36 L21,36 L21,39 L2.5,39 L1.38992578,37.3348887 L0.5,36.0393091 C0.500259736,36.0393091 0.50423764,36.0320514 0.511828131,36.0177422 L0.5,36 L0.521192148,36 L0.521192148,36 Z M53,0 L53,3 L68,3 L68,39 L71,39 L71,3 L86,3 L86,0 L53,0 Z M106,39 L134,39 L134,36 L109,36 L109,0 L106,0 L106,39 Z M218.591832,38.8452274 C210.948435,37.9687527 207.963775,31.2644483 207.860491,30.9029132 L210.685798,29.7168934 C210.792033,29.9741066 213.147439,35.0802343 218.90533,35.6991536 C222.778758,36.2156324 225.971896,35.183872 227.753249,33.5850112 C228.957424,32.5022871 229.531477,31.1095047 229.531477,29.2525756 C229.584769,24.4563351 226.70617,23.5273575 220.737718,21.1556598 L219.690987,20.7433319 L218.801004,20.3816258 C210.216071,16.8753851 208.591814,13.419082 208.749952,9.08698838 C209.010507,4.54813223 212.885149,-0.247937166 220.947411,0.00996016157 C227.804284,0.164561742 231.206768,5.32199523 232.044154,8.05522805 L229.112611,8.93204476 L230.578556,8.51903279 L229.112611,8.93204476 C229.060535,8.72511122 227.176245,3.20716874 220.842044,3.05256716 C214.037248,2.79466983 211.994472,6.92154013 211.839112,9.24124792 C211.733918,11.4075513 211.629592,14.0893072 219.952583,17.5444131 L221.837914,18.2676544 C227.543729,20.4341287 232.67254,22.1350882 232.67254,29.2525756 C232.621505,31.9861504 231.625461,34.2037596 229.740997,35.8029624 C227.753249,37.6595496 224.716513,39 221.156584,39 C220.371275,39 219.481467,38.8975594 218.591832,38.8452274 Z" id="l.atlas" sketch:type="MSShapeGroup"></path>
            </g>
        </g>
    </g>
</svg>